<svg width="9" height="10" viewBox="0 0 9 10" fill="none" xmlns="http://www.w3.org/2000/svg">
<path d="M0.329063 2.66866C0.224737 2.78288 0.141982 2.91849 0.0855208 3.06773C0.02906 3.21698 0 3.37694 0 3.53848C0 3.70002 0.02906 3.85998 0.0855208 4.00922C0.141982 4.15847 0.224737 4.29407 0.329063 4.4083L3.705 8.10101C3.91607 8.33186 4.2022 8.46152 4.50053 8.46152C4.79886 8.46152 5.08499 8.33186 5.29607 8.10101L8.67088 4.40953C8.77528 4.29514 8.85807 4.15936 8.91454 4.00993C8.97101 3.86051 9.00005 3.70037 9 3.53866C8.99995 3.37695 8.97081 3.21683 8.91424 3.06745C8.85767 2.91807 8.77479 2.78235 8.67031 2.66804C8.56584 2.55374 8.44183 2.46308 8.30536 2.40125C8.1689 2.33942 8.02264 2.30762 7.87495 2.30768C7.72726 2.30774 7.58102 2.33964 7.44459 2.40158C7.30816 2.46352 7.18421 2.55427 7.07981 2.66866L4.49941 5.49032L1.92125 2.66866C1.71018 2.43781 1.42405 2.30815 1.12572 2.30815C0.827391 2.30815 0.541261 2.43781 0.33019 2.66866H0.329063Z" fill="#333333"/>
</svg>
