<svg width="28" height="26" viewBox="0 0 28 26" fill="none" xmlns="http://www.w3.org/2000/svg">
<path d="M2.25 2.00305V0.503052C1.42157 0.503052 0.75 1.17462 0.75 2.00305H2.25ZM2.25 2.00305H0.75C0.75 2.83148 1.42157 3.50305 2.25 3.50305V2.00305ZM21.75 2.00305H2.25V3.50305H21.75V2.00305ZM21.75 2.00305V3.50305C22.5784 3.50305 23.25 2.83148 23.25 2.00305H21.75ZM21.75 2.00305H23.25C23.25 1.17462 22.5784 0.503052 21.75 0.503052V2.00305ZM2.25 2.00305H21.75V0.503052H2.25V2.00305ZM2.25 6.50305C1.42157 6.50305 0.75 7.17462 0.75 8.00305H2.25V6.50305ZM21.75 6.50305H2.25V8.00305H21.75V6.50305ZM23.25 8.00305C23.25 7.17462 22.5784 6.50305 21.75 6.50305V8.00305H23.25ZM21.75 9.50305C22.5784 9.50305 23.25 8.83148 23.25 8.00305H21.75V9.50305ZM2.25 9.50305H21.75V8.00305H2.25V9.50305ZM0.75 8.00305C0.75 8.83148 1.42157 9.50305 2.25 9.50305V8.00305H0.75ZM2.25 12.5031C1.42157 12.5031 0.75 13.1746 0.75 14.0031H2.25V12.5031ZM21.75 12.5031H2.25V14.0031H21.75V12.5031ZM23.25 14.0031C23.25 13.1746 22.5784 12.5031 21.75 12.5031V14.0031H23.25ZM21.75 15.5031C22.5784 15.5031 23.25 14.8315 23.25 14.0031H21.75V15.5031ZM2.25 15.5031H21.75V14.0031H2.25V15.5031ZM0.75 14.0031C0.75 14.8315 1.42157 15.5031 2.25 15.5031V14.0031H0.75Z" fill="#150047"/>
</svg>
