<svg viewBox="0 0 1263 906" fill="none" xmlns="http://www.w3.org/2000/svg">
<path d="M62.342 826.981H1245.27C1245.27 826.981 1256.02 612.486 1159.24 612.486C1062.45 612.486 1083.24 368.817 915.57 368.817C747.903 368.817 814.39 77.117 623.871 77.117C433.352 77.117 460.919 324.094 460.919 383.241C460.919 442.388 289.319 407.437 289.319 490.78C289.319 574.123 161.816 535.249 161.816 635.34C161.816 735.431 62.342 612.045 62.342 826.981Z" fill="#F1F5EE"/>
<path d="M213.65 905.107C282.021 905.107 337.446 892.804 337.446 877.627C337.446 862.45 282.021 850.147 213.65 850.147C145.279 850.147 89.854 862.45 89.854 877.627C89.854 892.804 145.279 905.107 213.65 905.107Z" fill="#F1F5EE"/>
<path d="M1097.16 905.107C1165.53 905.107 1220.95 892.804 1220.95 877.627C1220.95 862.45 1165.53 850.147 1097.16 850.147C1028.79 850.147 973.361 862.45 973.361 877.627C973.361 892.804 1028.79 905.107 1097.16 905.107Z" fill="#F1F5EE"/>
<path d="M214.014 545.008L233.723 551.209L226.253 517.218C234.465 500.02 243.332 483.92 252.458 469.012C261.895 472.764 271.948 476.52 271.948 476.52L266.917 446.608C311.276 381.322 356.318 344.148 356.318 344.148C356.318 344.148 325.907 403.079 311.125 481.258L295.65 486.002L309.051 493.023C305.012 517.651 302.666 543.911 303.367 570.658C306.461 688.583 219.711 826.982 219.711 826.982H198.695C167.286 718.258 182.817 622.228 214.014 545.008Z" fill="#C7D9BB"/>
<path d="M200.28 502.725L165.883 493.78L186.254 474.751C184.711 472.106 183.133 469.479 181.483 466.89C171.651 451.459 162.982 437.008 155.326 423.499L122.919 426.101L140.378 395.882C94.91 307.566 98.108 268.263 98.108 268.263C98.108 268.263 74.456 329.519 71.874 427.959L95.132 438.751L71.665 450.827C71.842 472.44 73.088 495.588 75.784 520.048L115.956 531.848C115.956 531.848 101.974 553.438 82.869 568.58C96.959 646.182 126.264 734.205 181.483 826.98H203.246C203.245 826.981 259.215 640.504 200.28 502.725Z" fill="#C7D9BB"/>
<path d="M266.491 826.981C266.491 826.981 288.561 786.491 278.752 790.578C268.943 794.665 259.952 812.648 259.952 812.648C259.952 812.648 279.569 762.378 275.891 758.291C272.213 754.204 253.004 799.161 253.004 799.161C253.004 799.161 262.813 772.596 257.5 769.326C252.187 766.056 241.561 795.891 241.561 795.891C241.561 795.891 261.267 741.284 248.758 733.235C236.248 725.186 211.318 826.981 211.318 826.981H266.491Z" fill="#C7D9BB"/>
<path d="M110.369 826.981C110.369 826.981 96.269 796.709 110.369 791.804C124.469 786.899 158.328 826.981 158.328 826.981H110.369Z" fill="#90B277"/>
<path d="M185.471 629.578L171.673 633.919L176.902 610.122C171.153 598.082 164.946 586.811 158.557 576.374C151.95 579 144.912 581.63 144.912 581.63L148.434 560.689C117.38 514.984 85.846 488.959 85.846 488.959C85.846 488.959 107.136 530.215 117.484 584.947L128.318 588.268L118.936 593.184C121.764 610.425 123.406 628.81 122.915 647.534C120.749 730.091 181.481 826.981 181.481 826.981H196.194C218.184 750.866 207.311 683.638 185.471 629.578Z" fill="#ACC599"/>
<path d="M192.743 826.981C192.743 826.981 213.995 604.212 220.534 604.212C227.073 604.212 200.099 826.981 200.099 826.981H192.743Z" fill="#C7D9BB"/>
<path d="M193.195 826.981C193.195 826.981 199.325 589.499 207.908 588.273C216.491 587.047 200.551 826.981 200.551 826.981H193.195Z" fill="#C7D9BB"/>
<path d="M202.956 826.981C202.956 826.981 189.469 604.212 181.499 604.212C173.529 604.212 196.212 826.981 196.212 826.981H202.956Z" fill="#C7D9BB"/>
<path d="M181.482 826.981C181.482 826.981 187.612 589.499 196.195 588.273C204.778 587.047 188.838 826.981 188.838 826.981H181.482Z" fill="#C7D9BB"/>
<path d="M191.243 826.981C191.243 826.981 177.756 604.212 169.786 604.212C161.816 604.212 184.499 826.981 184.499 826.981H191.243Z" fill="#C7D9BB"/>
<path d="M164.663 718.796C161.656 705.069 171.756 701.828 177.605 701.085C174.413 691.013 170.903 681.43 167.143 672.322C161.213 678.39 152.511 683.551 147.04 669.805C140.465 653.285 147.872 644.347 152.246 640.775C144.422 626.163 136.072 613.098 127.637 601.503C121.555 608.614 112.018 616.912 105.217 609.286C96.658 599.69 104.634 583.482 108.224 577.296C77.387 542.393 50.29 526.968 50.29 526.968C48.856 551.512 49.862 574.731 52.669 596.578C58.707 599.641 66.553 605.186 67.148 613.517C67.664 620.736 62.747 625.048 57.994 627.511C61.642 644.357 66.312 660.245 71.684 675.127C76.678 673.565 91.825 669.652 94.804 678.591C97.037 685.29 88.758 694.931 82.215 701.236C118.366 782.197 171.672 826.981 171.672 826.981H196.194C196.194 790.178 191.99 757.242 185.023 727.9C176.94 729.776 167.036 729.629 164.663 718.796Z" fill="#3A502B"/>
<path d="M124.664 740.402L117.809 750.01V731.078C110.05 720.997 101.774 711.853 93.204 704.752C90.164 702.233 87.157 699.239 84.189 695.875L66.706 706.55V671.282C61.542 662.654 56.603 653.239 51.959 643.544L34.612 657.97L40.632 618.121C24.138 578.523 13.508 541.681 13.508 541.681C13.508 541.681 -1.095 582.165 0.0670031 633.895L11.125 639.871L0.870003 648.976C2.303 666.268 5.684 684.432 12.019 702.503L22.249 707.625L15.752 712.281C20.062 722.713 25.435 733.047 32.056 743.101L44.757 740.687L43.291 758.364C65.686 785.675 98.78 809.969 147.041 826.981H171.674C171.673 826.981 152.19 779.496 124.664 740.402Z" fill="#C7D9BB"/>
<path d="M243.012 732.782L249.923 727.798C253.653 710.077 256.544 692.582 258.783 676.101L252.284 674.361L260.01 666.663C266.485 614.537 266.489 574.786 266.489 574.786C266.489 574.786 264.854 601.76 217.65 651.621C215.383 654.016 213.27 656.588 211.296 659.309C213.615 666.965 217.631 679.241 217.631 679.241L198.749 682.883C195.369 691.564 192.781 700.881 190.822 710.448L208.227 720.726L186.93 736.738C186.014 746.071 185.546 755.308 185.382 764.114L198.731 765.139L185.385 779.487C185.889 806.834 188.837 826.98 188.837 826.98H217.651C231.21 799.4 241 767.697 248.075 736.284L243.012 732.782Z" fill="#3A502B"/>
<path d="M1125.07 646.278L1112.44 650.252L1117.23 628.469C1111.96 617.448 1106.28 607.13 1100.43 597.576C1094.39 599.98 1087.94 602.387 1087.94 602.387L1091.17 583.218C1062.74 541.379 1033.88 517.557 1033.88 517.557C1033.88 517.557 1053.36 555.323 1062.84 605.424L1072.75 608.464L1064.17 612.964C1066.75 628.747 1068.26 645.576 1067.81 662.716C1065.83 738.289 1121.42 826.982 1121.42 826.982H1134.89C1155.02 757.305 1145.06 695.765 1125.07 646.278Z" fill="#C7D9BB"/>
<path d="M1133.87 619.181L1155.92 613.448L1142.86 601.253C1143.85 599.558 1144.86 597.875 1145.92 596.215C1152.22 586.326 1157.78 577.065 1162.68 568.408L1183.45 570.075L1172.26 550.709C1201.4 494.112 1199.35 468.925 1199.35 468.925C1199.35 468.925 1214.51 508.181 1216.16 571.267L1201.26 578.183L1216.3 585.922C1216.18 599.773 1215.38 614.607 1213.66 630.282L1187.91 637.844C1187.91 637.844 1196.87 651.68 1209.12 661.384C1200.09 711.115 1181.31 767.525 1145.92 826.98H1131.97C1131.97 826.981 1096.1 707.477 1133.87 619.181Z" fill="#C7D9BB"/>
<path d="M1091.44 826.981C1091.44 826.981 1077.3 801.033 1083.58 803.652C1089.87 806.271 1095.63 817.795 1095.63 817.795C1095.63 817.795 1083.06 785.58 1085.42 782.96C1087.77 780.341 1100.08 809.151 1100.08 809.151C1100.08 809.151 1093.8 792.127 1097.2 790.031C1100.61 787.936 1107.42 807.055 1107.42 807.055C1107.42 807.055 1094.79 772.06 1102.81 766.902C1110.82 761.744 1126.8 826.979 1126.8 826.979H1091.44V826.981Z" fill="#C7D9BB"/>
<path d="M1191.49 826.981C1191.49 826.981 1200.53 807.581 1191.49 804.438C1182.46 801.295 1160.76 826.981 1160.76 826.981H1191.49Z" fill="#90B277"/>
<path d="M1143.36 700.475L1152.21 703.257L1148.86 688.007C1152.54 680.291 1156.52 673.068 1160.61 666.379C1164.85 668.062 1169.36 669.747 1169.36 669.747L1167.1 656.327C1187 627.037 1207.21 610.359 1207.21 610.359C1207.21 610.359 1193.56 636.798 1186.93 671.873L1179.99 674.001L1186 677.151C1184.19 688.2 1183.14 699.982 1183.45 711.982C1184.84 764.889 1145.92 826.981 1145.92 826.981H1136.49C1122.4 778.203 1129.37 735.119 1143.36 700.475Z" fill="#90B277"/>
<path d="M1138.7 826.981C1138.7 826.981 1125.08 684.219 1120.89 684.219C1116.7 684.219 1133.99 826.981 1133.99 826.981H1138.7Z" fill="#C7D9BB"/>
<path d="M1138.41 826.981C1138.41 826.981 1134.49 674.79 1128.99 674.004C1123.49 673.218 1133.7 826.981 1133.7 826.981H1138.41Z" fill="#C7D9BB"/>
<path d="M1132.16 826.981C1132.16 826.981 1140.8 684.219 1145.91 684.219C1151.01 684.219 1136.48 826.981 1136.48 826.981H1132.16Z" fill="#C7D9BB"/>
<path d="M1145.92 826.981C1145.92 826.981 1141.99 674.79 1136.49 674.004C1130.99 673.218 1141.21 826.981 1141.21 826.981H1145.92Z" fill="#C7D9BB"/>
<path d="M1139.67 826.981C1139.67 826.981 1148.31 684.219 1153.42 684.219C1158.52 684.219 1143.99 826.981 1143.99 826.981H1139.67Z" fill="#C7D9BB"/>
<path d="M1156.7 757.65C1158.63 748.853 1152.15 746.776 1148.4 746.3C1150.45 739.846 1152.7 733.704 1155.11 727.867C1158.91 731.755 1164.49 735.063 1167.99 726.254C1172.21 715.667 1167.46 709.939 1164.66 707.65C1169.67 698.286 1175.02 689.913 1180.43 682.482C1184.32 687.039 1190.44 692.357 1194.79 687.47C1200.28 681.32 1195.17 670.933 1192.87 666.969C1212.63 644.601 1229.99 634.716 1229.99 634.716C1230.91 650.445 1230.27 665.325 1228.47 679.325C1224.6 681.288 1219.57 684.842 1219.19 690.18C1218.86 694.807 1222.01 697.57 1225.06 699.148C1222.72 709.944 1219.73 720.126 1216.28 729.663C1213.08 728.662 1203.38 726.154 1201.47 731.883C1200.04 736.176 1205.34 742.355 1209.53 746.395C1186.37 798.279 1152.21 826.979 1152.21 826.979H1136.49C1136.49 803.394 1139.18 782.287 1143.65 763.483C1148.83 764.687 1155.18 764.593 1156.7 757.65Z" fill="#3A502B"/>
<path d="M1182.33 771.497L1186.72 777.654V765.521C1191.7 759.06 1197 753.201 1202.49 748.65C1204.44 747.036 1206.37 745.117 1208.27 742.961L1219.47 749.802V727.2C1222.78 721.671 1225.95 715.637 1228.92 709.424L1240.04 718.669L1236.18 693.132C1246.75 667.755 1253.57 644.145 1253.57 644.145C1253.57 644.145 1262.92 670.089 1262.18 703.241L1255.09 707.071L1261.67 712.906C1260.75 723.987 1258.58 735.628 1254.52 747.209L1247.96 750.491L1252.13 753.475C1249.37 760.16 1245.92 766.783 1241.68 773.226L1233.54 771.679L1234.48 783.007C1220.13 800.51 1198.92 816.078 1167.99 826.981H1152.2C1152.21 826.981 1164.69 796.55 1182.33 771.497Z" fill="#C7D9BB"/>
<path d="M1106.49 766.613L1102.06 763.419C1099.67 752.062 1097.82 740.85 1096.38 730.289L1100.55 729.174L1095.59 724.241C1091.44 690.836 1091.44 665.361 1091.44 665.361C1091.44 665.361 1092.49 682.647 1122.74 714.601C1124.19 716.136 1125.55 717.784 1126.81 719.528C1125.33 724.434 1122.75 732.302 1122.75 732.302L1134.85 734.636C1137.02 740.199 1138.68 746.17 1139.93 752.301L1128.78 758.888L1142.43 769.149C1143.01 775.13 1143.31 781.05 1143.42 786.693L1134.86 787.35L1143.42 796.545C1143.09 814.071 1141.21 826.981 1141.21 826.981H1122.74C1114.05 809.306 1107.78 788.989 1103.24 768.858L1106.49 766.613Z" fill="#90B277"/>
<path d="M998.904 826.981H397.305V0H998.904C1012.87 0 1024.19 11.323 1024.19 25.29V801.69C1024.19 815.658 1012.87 826.981 998.904 826.981Z" fill="#688F4D"/>
<path d="M980.523 826.981H378.924V0H980.523C994.49 0 1005.81 11.323 1005.81 25.29V801.69C1005.81 815.658 994.491 826.981 980.523 826.981Z" fill="#90B277"/>
<path d="M934.589 27.597H1005.81V799.384H886.834L882.167 42.382L934.589 27.597Z" fill="#E4EDEB"/>
<path d="M909.299 826.981H307.7V0H909.299C923.266 0 934.589 11.323 934.589 25.29V801.69C934.589 815.658 923.266 826.981 909.299 826.981Z" fill="#688F4D"/>
<path d="M890.918 826.981H289.319V0H890.918C904.885 0 916.208 11.323 916.208 25.29V801.69C916.209 815.658 904.886 826.981 890.918 826.981Z" fill="#82A966"/>
<path d="M305.402 826.981H272.326C258.904 826.981 248.024 816.101 248.024 802.679V24.302C248.024 10.881 258.904 0 272.326 0H305.402V826.981Z" fill="#3A502B"/>
<path d="M980.312 722.952C979.508 742.573 978.014 761.505 975.51 778.163C975.51 778.163 974.246 755.371 973.258 722.952C972.27 691.246 971.558 650.303 972.477 612.485C972.96 592.611 973.901 573.633 975.51 557.274C975.51 557.274 977.555 579.974 979.14 612.485C980.702 644.031 981.851 684.79 980.312 722.952Z" fill="#CBD8D5"/>
<path d="M1052.32 668.27L1106.98 722.952H973.258C972.27 691.246 971.558 650.303 972.477 612.485H1108.08L1052.32 668.27Z" fill="#6B625C"/>
<path d="M600.676 635.339C723.2 635.339 822.525 536.014 822.525 413.49C822.525 290.966 723.2 191.641 600.676 191.641C478.152 191.641 378.827 290.966 378.827 413.49C378.827 536.014 478.152 635.339 600.676 635.339Z" fill="#6B625C"/>
<path d="M600.676 616.6C712.851 616.6 803.786 525.665 803.786 413.49C803.786 301.315 712.851 210.38 600.676 210.38C488.501 210.38 397.566 301.315 397.566 413.49C397.566 525.665 488.501 616.6 600.676 616.6Z" fill="#E4EDEB"/>
<path d="M680.674 544.135C586.555 543.357 501.632 476.302 475.66 384.753C470.216 365.564 467.478 346.005 467.694 326.029C467.773 318.751 469.98 312.492 475.171 307.328C479.859 302.665 484.469 297.922 489.195 293.298C507.527 275.358 536.841 280.986 546.208 305.035C551.193 317.834 554.505 331.432 557.154 344.948C559.426 356.539 555.464 367.433 546.307 374.96C537.685 382.048 537.672 389.06 541.764 398.525C557.012 433.797 582.329 458.239 618.119 472.09C624.501 474.56 629.447 474.131 634.119 468.649C646.025 454.679 660.781 451.437 678.05 457.324C686.279 460.129 694.894 461.781 703.202 464.378C731.027 473.073 738.072 507.153 717.888 523.858C713.046 527.865 708.828 532.641 704.434 537.172C696.826 545.017 687.077 544.301 680.674 544.135Z" fill="#6B625C"/>
<path d="M934.787 324.162C934.787 324.162 930.818 316.578 930.439 316.141C930.06 315.705 918.737 303.978 918.214 305.58C917.691 307.182 922.314 313.244 922.314 313.244C922.314 313.244 916.069 319.766 917.093 321.068C918.117 322.37 920.371 327.172 920.371 327.172L926.021 330.303L934.787 324.162Z" fill="#C7D9BB"/>
<path d="M1129 848.863C1129 848.863 1116.07 856.901 1111.93 858.1C1107.8 859.299 1109.71 862.419 1109.71 862.419C1109.71 862.419 1135.45 872.13 1137.42 871.417C1139.39 870.704 1142.06 869.187 1142.06 869.187L1141.3 849.734L1129 848.863Z" fill="#90B277"/>
<path d="M1114.82 511.945C1114.82 511.945 1114.4 530.189 1115.47 533.565C1116.54 536.941 1107.9 649.479 1107.84 668.805C1107.83 673.651 1108.83 687.639 1110.33 705.868L1110.32 705.943C1114.76 760.211 1123.64 851.906 1123.64 851.906C1128.87 855.105 1142.8 852.094 1142.8 852.094C1142.8 852.094 1136.68 677.2 1139.13 667.265C1141.57 657.33 1160.87 592.344 1170.97 560.528C1181.07 528.712 1176.08 498.783 1176.08 498.783L1159.14 502.43L1114.82 511.945Z" fill="#382F29"/>
<path d="M1079.98 861.836C1079.98 861.836 1065.68 870.724 1061.11 872.05C1056.53 873.376 1058.65 876.826 1058.65 876.826C1058.65 876.826 1087.12 887.564 1089.29 886.775C1091.47 885.986 1094.42 884.309 1094.42 884.309L1093.58 862.799L1079.98 861.836Z" fill="#90B277"/>
<path d="M1114.82 511.945C1114.82 511.945 1114.47 530.194 1115.65 533.577C1116.82 536.96 1108.13 649.495 1108.18 668.828C1108.19 673.676 1109.35 687.675 1111.08 705.92C1111 703.067 1115.89 651.202 1124.88 634.343C1151.38 584.674 1153.39 534.213 1153.39 534.213L1173.54 504.915L1162.7 502.681L1114.82 511.945Z" fill="#463B33"/>
<path d="M1095.23 863.339C1095.23 863.339 1082.69 866.459 1078.03 863.3C1078.03 863.3 1069.18 698.606 1069.37 679.29C1069.57 659.974 1073.94 548.548 1073.01 545.182C1072.08 541.816 1072.59 523.573 1072.59 523.573L1145.3 517.771C1145.3 517.771 1143.54 559.135 1134.25 591.007C1124.96 622.879 1105.24 680.483 1102.98 690.425C1100.71 700.367 1095.23 863.339 1095.23 863.339Z" fill="#382F29"/>
<path d="M1087.18 310.879L1086.72 317.336L1088.05 320.134L1090.56 325.457L1107.59 324.926L1098.04 308.584L1087.98 310.706L1087.18 310.879Z" fill="#C7D9BB"/>
<path d="M1114.33 328.172L1109.79 322.832C1109.79 322.832 1092.07 321.474 1087.22 326.252C1082.38 331.03 1082.43 334.618 1082.43 334.618L1112.33 333.355L1114.33 328.172Z" fill="#90B277"/>
<path d="M1180.87 501.366C1180.85 502.342 1180.83 503.318 1180.81 504.314C1180.81 504.314 1142.95 529.907 1065.83 525.685C1065.83 525.685 1065.26 516.245 1064.46 501.765C1064.4 500.789 1064.34 499.793 1064.28 498.778V498.639C1063.94 492.365 1063.54 485.255 1063.13 477.647C1060.94 437.177 1058.21 382.466 1058.13 360.976C1058.11 356.694 1058.21 353.746 1058.43 352.472C1059.1 348.628 1073.62 330.365 1101.15 327.636C1125.31 325.246 1148.43 334.069 1150.82 337.913C1152.57 340.761 1169.32 382.088 1177.05 439.109C1178.11 446.916 1179 455.042 1179.66 463.367C1180.63 475.574 1181.09 488.321 1180.87 501.366Z" fill="#908985"/>
<path d="M1087.18 310.879L1086.72 317.336L1088.05 320.134C1091.55 317.4 1091.87 313.653 1091.87 313.653L1087.98 310.707L1087.18 310.879Z" fill="#C7D9BB"/>
<path d="M1085.08 289.947C1085.08 289.947 1081.96 296.383 1080 302.491C1078.03 308.599 1077.55 313.891 1083.7 316.682C1089.85 319.473 1092.86 311.8 1092.86 311.8L1097.97 314.723L1109.18 302.612L1091.75 285.503C1091.75 285.503 1086.87 285.999 1085.08 289.947Z" fill="#C7D9BB"/>
<path d="M1094.41 306.278C1094.41 306.278 1095.44 301.845 1098.44 303.149C1101.43 304.454 1097.78 312.594 1094.09 310.762L1095.6 316.468C1095.6 316.468 1103.34 317.649 1103.35 317.666C1103.36 317.683 1114.12 304.7 1114.9 303.238C1115.69 301.777 1112.08 286.227 1101.06 282.681C1090.05 279.136 1095.75 267.967 1089.23 269.04C1082.7 270.114 1078.76 287.926 1085.41 292.512C1092.05 297.098 1094.16 300.627 1093.37 304.463L1094.41 306.278Z" fill="#382F29"/>
<path d="M1076.07 394.892C1067.23 409.73 1063.1 415.904 1063.1 415.904L1064.28 498.637C1063.94 492.363 1063.54 485.253 1063.12 477.645C1060.93 437.175 1058.21 382.464 1058.13 360.974L1076.07 356.991C1076.07 356.991 1084.93 380.074 1076.07 394.892Z" fill="#7E7670"/>
<path d="M1098.04 305.731C1098.04 305.731 1098.19 304.359 1097.07 304.229C1095.96 304.099 1096.32 306.122 1095.6 306.992C1094.87 307.862 1094.87 307.862 1094.87 307.862C1094.87 307.862 1096.2 307.854 1096.46 306.797C1096.71 305.739 1096.68 303.944 1098.04 305.731Z" fill="#C7D9BB"/>
<path d="M1076.06 370.563C1076.82 389.843 1058.98 402.4 1058.98 402.4C1058.98 402.4 972.502 397.095 967.957 391.857C963.412 386.619 922.968 332.955 922.968 332.955C922.968 332.955 922.93 318.062 936.691 324.297C936.691 324.297 976.053 362.388 978.694 363.667C981.335 364.946 1070.11 339.355 1070.11 339.355C1070.11 339.355 1075.43 354.677 1076.06 370.563Z" fill="#908985"/>
<path d="M978.692 363.667L965.871 367.293C965.872 367.293 967.202 360.042 978.692 363.667Z" fill="#7E7670"/>
<path d="M172.063 800.643L183.385 856.515L194.92 852.6L190.369 792.812L172.063 800.643Z" fill="#C7D9BB"/>
<path d="M182.52 852.244L194.92 849.532C194.92 849.532 200.317 866.992 200.634 867.627C200.951 868.262 198.412 870.484 198.412 870.484C198.412 870.484 172.804 872.283 172.592 871.965C172.38 871.647 172.592 869.637 172.592 869.637C172.592 869.637 181.76 862.257 182.52 852.244Z" fill="#90B277"/>
<path d="M217.214 803.606L216.788 872.003H229.556L237.689 808.574L217.214 803.606Z" fill="#C7D9BB"/>
<path d="M216.219 870.139H230.437C230.437 870.139 234.134 886.206 239.11 889.902L238.399 891.893C238.399 891.893 225.46 895.448 220.484 890.045C215.508 884.642 215.508 884.642 215.508 884.642L216.219 870.139Z" fill="#90B277"/>
<path d="M258.978 439.104C258.978 439.104 270.444 467.459 270.737 468.926C271.03 470.392 256.2 516.407 255.703 518.565C255.206 520.723 258.691 531.179 258.691 531.179C258.691 531.179 274.127 533.503 273.961 532.507C273.795 531.511 263.67 528.358 263.006 528.192C262.342 528.026 262.508 521.719 263.006 522.051C263.504 522.383 264.832 525.537 265.662 525.205C266.492 524.873 264.475 514.916 264.475 514.916C264.475 514.916 288.81 471.412 289.308 469.421C289.806 467.429 275.289 423.958 275.289 423.958L258.978 439.104Z" fill="#C7D9BB"/>
<path d="M286.833 424.735C286.833 424.735 266.796 442.99 255.277 443.421C254.395 443.459 253.57 443.402 252.819 443.215L240.793 419.463L243.739 379.051L245.765 351.341L286.833 424.735Z" fill="#908985"/>
<path d="M251.619 434.378L255.277 443.421C254.395 443.459 253.57 443.402 252.819 443.215L240.793 419.463L243.739 379.051L250.512 368.151C250.512 368.151 264.921 401.715 266.159 402.709C267.378 403.703 251.619 434.378 251.619 434.378Z" fill="#7E7670"/>
<path d="M263.784 572.752C263.747 573.484 263.69 574.234 263.653 575.003C263.597 575.847 263.54 576.71 263.484 577.592C263.465 577.873 263.465 578.136 263.446 578.418C263.371 579.281 263.315 580.144 263.277 581.045C263.258 581.364 263.221 581.702 263.202 582.021C263.146 582.922 263.089 583.841 263.033 584.779C262.92 586.374 262.808 588.025 262.695 589.713C262.62 590.689 262.564 591.664 262.489 592.659C262.47 593.034 262.433 593.391 262.414 593.785C262.283 595.474 262.17 597.2 262.058 598.963C262.02 599.376 261.983 599.807 261.964 600.239C261.87 601.29 261.795 602.34 261.72 603.41C261.532 606.093 261.326 608.851 261.12 611.684C261.045 612.791 260.951 613.898 260.876 615.023C260.838 615.492 260.801 615.98 260.763 616.449C260.5 619.939 260.238 623.541 259.956 627.199C259.9 627.799 259.862 628.419 259.806 629.019C259.731 630.145 259.637 631.289 259.543 632.434C259.506 632.959 259.468 633.485 259.43 634.01C258.942 640.37 258.417 646.899 257.91 653.522C257.854 654.085 257.816 654.666 257.76 655.248C257.666 656.468 257.572 657.687 257.479 658.925C257.423 659.507 257.385 660.088 257.329 660.651C257.16 662.809 256.991 664.985 256.804 667.161C256.766 667.724 256.729 668.287 256.673 668.831C256.429 671.983 256.166 675.135 255.922 678.287C255.885 678.718 255.847 679.15 255.809 679.581C250.781 741.549 245.453 803.067 245.453 803.067L214.216 796.594C214.216 796.594 214.31 795.112 214.46 792.542C214.498 791.885 214.554 791.172 214.591 790.403C214.666 789.221 214.741 787.908 214.835 786.482C214.91 785.037 215.004 783.48 215.116 781.81C215.191 780.703 215.247 779.559 215.322 778.358C215.397 777.157 215.472 775.919 215.547 774.643C215.697 772.11 215.866 769.427 216.035 766.651C216.485 758.996 216.992 750.648 217.498 742.524C217.686 739.579 217.854 736.652 218.023 733.819C218.154 731.737 218.267 729.691 218.398 727.703V727.459C218.679 722.825 218.942 718.51 219.167 714.776C219.204 714.176 219.242 713.594 219.261 713.013C219.411 710.48 219.542 708.266 219.655 706.447C219.655 706.391 219.674 706.353 219.655 706.316C219.843 703.014 219.955 701.007 219.955 700.819C219.955 699.468 218.961 698.136 218.792 697.554C218.736 697.385 218.83 697.141 218.98 696.897C219.055 696.784 219.149 696.672 219.224 696.559C219.374 696.353 219.562 696.146 219.712 695.977C219.787 695.902 219.862 695.808 219.937 695.752L220.087 695.602C220.106 695.564 220.125 695.546 220.125 695.546C220.125 695.546 219.206 693.707 218.718 692.863C218.68 692.807 218.643 692.732 218.643 692.657C218.587 692.488 218.606 692.301 218.662 692.113C218.775 691.663 219.093 691.212 219.337 690.893C219.393 690.818 219.45 690.762 219.487 690.705C219.581 690.574 219.637 690.517 219.637 690.517C219.637 690.517 218.98 684.814 217.967 676.221C216.185 661.193 213.352 637.385 211.194 619.956C211.044 618.718 210.894 617.498 210.744 616.335C210.594 615.153 210.463 614.027 210.312 612.939C210.256 612.395 210.181 611.851 210.106 611.326C209.9 609.769 209.712 608.305 209.543 606.955C208.849 601.664 208.361 598.287 208.192 597.987L208.173 597.968C208.136 597.968 208.098 598.043 208.023 598.174C208.004 598.193 208.004 598.212 207.985 598.249C207.854 598.568 207.666 599.15 207.403 599.975C207.347 600.144 207.309 600.313 207.253 600.5C207.009 601.326 206.728 602.357 206.409 603.521C206.371 603.615 206.334 603.727 206.315 603.84C206.184 604.365 206.034 604.928 205.865 605.528C205.771 605.884 205.677 606.26 205.584 606.654C205.303 607.686 205.021 608.811 204.721 609.975C204.346 611.438 203.952 613.014 203.539 614.665C203.333 615.434 203.145 616.222 202.957 617.01C202.788 617.629 202.638 618.267 202.488 618.905C202.357 619.43 202.225 619.937 202.094 620.462C202.075 620.575 202.057 620.668 202.019 620.743C201.831 621.569 201.625 622.394 201.419 623.238C201.1 624.532 200.781 625.827 200.462 627.159C200.256 628.041 200.049 628.923 199.824 629.804C199.711 630.254 199.618 630.705 199.505 631.155C199.299 631.981 199.092 632.806 198.905 633.631C198.68 634.588 198.455 635.526 198.23 636.464C198.061 637.215 197.874 637.965 197.705 638.697C197.349 640.142 197.011 641.586 196.673 643.012C196.56 643.519 196.448 644.006 196.335 644.494C195.622 647.496 194.947 650.404 194.328 653.124C194.328 653.162 194.309 653.199 194.309 653.237C193.577 656.389 192.902 659.297 192.358 661.811C192.302 662.111 192.227 662.43 192.152 662.73C191.683 664.85 191.289 666.651 191.008 668.077C191.008 668.133 190.989 668.171 190.97 668.227C190.857 668.715 190.782 669.165 190.707 669.559C190.707 669.597 190.707 669.634 190.688 669.672C190.613 669.991 190.557 670.254 190.538 670.479C190.538 670.498 190.538 670.535 190.519 670.554C190.425 671.023 190.388 671.323 190.406 671.417C190.462 671.905 190.537 672.336 190.631 672.768C190.762 673.406 190.95 673.969 191.138 674.494C191.344 675.001 191.551 675.47 191.776 675.92C192.039 676.464 191.851 677.064 191.532 677.59C191.419 677.778 191.307 677.946 191.176 678.096C190.97 678.377 190.726 678.64 190.576 678.846C190.501 678.921 190.445 678.996 190.407 679.052C190.032 679.634 191.57 681.003 191.57 682.354C191.57 682.861 191.401 683.405 191.195 683.874C190.839 684.681 190.351 685.281 190.351 685.281C190.351 685.281 186.505 738.619 194.122 786.066V786.085L173.635 792.351L167.369 794.283H167.35C167.35 794.283 162.359 762.952 157.669 733.459C157.669 733.459 157.669 733.459 157.669 733.44C157.331 731.32 156.994 729.2 156.656 727.099C156.656 727.08 156.656 727.08 156.656 727.08C156.468 725.823 156.262 724.566 156.056 723.328C156.056 723.328 156.056 723.328 156.056 723.309C155.925 722.483 155.793 721.677 155.662 720.851C155.606 720.438 155.549 720.025 155.474 719.613C155.343 718.806 155.211 718 155.08 717.212C154.836 715.617 154.592 714.023 154.33 712.484C154.217 711.715 154.105 710.964 153.974 710.214C153.974 710.195 153.974 710.195 153.974 710.195C153.861 709.444 153.73 708.713 153.618 707.981C153.337 706.142 153.055 704.36 152.774 702.653C152.661 701.996 152.568 701.321 152.455 700.683C152.192 699.051 151.948 697.475 151.723 696.011C151.629 695.448 151.535 694.885 151.442 694.323C150.391 687.682 149.697 683.273 149.585 682.541C149.247 680.327 152.08 638.978 154.613 602.656C154.688 601.718 154.763 600.78 154.819 599.861C154.856 599.355 154.894 598.848 154.913 598.323C154.988 597.441 155.044 596.559 155.119 595.678C155.157 595.153 155.194 594.609 155.213 594.065C155.344 592.264 155.476 590.482 155.607 588.718C155.738 586.842 155.87 584.984 155.982 583.165C156.113 581.476 156.226 579.807 156.338 578.193V578.024C156.507 575.566 156.676 573.221 156.844 570.989C156.863 570.576 156.9 570.182 156.919 569.769C157.05 567.93 157.163 566.167 157.294 564.497V564.366C157.388 563.053 157.463 561.815 157.557 560.651V560.52C157.688 558.738 157.782 557.124 157.895 555.68V555.586C157.933 555.117 157.97 554.648 157.989 554.216C158.027 553.784 158.045 553.372 158.083 552.978C158.102 552.546 158.139 552.152 158.158 551.777C158.196 551.233 158.214 550.726 158.252 550.295C158.271 550.145 158.271 549.995 158.271 549.864C158.29 549.601 158.309 549.357 158.327 549.132C158.327 549.019 158.327 548.926 158.346 548.813C158.346 548.644 158.365 548.475 158.365 548.344C158.384 548.194 158.384 548.063 158.384 547.969C158.422 547.05 158.665 545.793 159.097 544.329C159.679 542.265 160.579 539.789 161.592 537.237C161.892 536.487 162.192 535.755 162.492 535.023C162.942 533.916 163.43 532.809 163.88 531.721C164.199 531.008 164.499 530.295 164.799 529.62C164.949 529.264 165.099 528.926 165.249 528.607C165.512 528.044 165.737 527.5 165.981 526.994C166.075 526.806 166.15 526.619 166.244 526.431C166.732 525.324 167.182 524.348 167.576 523.523C167.876 522.847 168.139 522.285 168.345 521.872C168.533 521.44 168.664 521.159 168.72 521.028C168.814 520.84 168.964 519.358 169.189 516.957C169.245 516.432 169.302 515.85 169.339 515.231C169.395 514.593 169.452 513.937 169.508 513.242C169.639 511.497 169.808 509.509 169.977 507.351C170.183 504.725 170.39 501.854 170.615 498.833C170.728 497.37 170.84 495.887 170.953 494.368C172.341 475.269 173.899 452.831 174.011 452.268C174.067 452.024 173.129 450.973 171.666 449.473C170.897 448.666 169.959 447.728 168.927 446.696L168.195 445.964C166.976 444.726 165.644 443.413 164.349 442.118C163.561 441.33 162.792 440.542 162.06 439.792C161.497 439.192 160.934 438.591 160.39 438.028C159.808 437.39 159.246 436.771 158.758 436.208C157.951 435.289 157.332 434.501 156.938 433.882C156.882 433.769 156.807 433.676 156.769 433.582C156.694 433.488 156.656 433.394 156.619 433.319C156.544 433.15 156.488 432.887 156.469 432.512C156.338 431.217 156.432 428.722 156.713 425.458C157.051 421.012 157.689 415.139 158.42 408.986C160.277 393.283 162.848 375.704 163.073 374.916C163.204 374.409 167.913 372.289 174.236 369.738C174.236 369.738 174.236 369.719 174.255 369.719H174.274C176.507 368.8 178.946 367.843 181.478 366.849C183.56 366.042 185.718 365.217 187.819 364.429C191.14 363.191 194.385 362.028 197.275 361.033C197.575 360.939 197.875 360.845 198.157 360.752C201.703 359.551 204.611 358.669 206.262 358.332C207.35 358.126 209.076 357.788 211.234 357.357C216.769 356.269 225.099 354.655 232.19 353.361C232.321 353.342 232.434 353.323 232.546 353.305C234.31 352.986 235.979 352.686 237.518 352.405C242.265 351.617 245.623 351.129 245.773 351.354C246.092 351.879 253.465 378.802 257.405 393.623V393.642C257.912 395.556 258.381 397.263 258.756 398.689C258.775 398.689 258.756 398.708 258.756 398.708C259 399.646 259.206 400.472 259.394 401.147C259.638 402.16 259.807 402.836 259.844 403.079C260.05 404.261 256.805 412.854 253.24 422.028C253.034 422.553 252.827 423.097 252.621 423.623C252.227 424.617 251.833 425.63 251.439 426.644C251.233 427.169 251.026 427.695 250.82 428.22C250.745 428.389 250.689 428.558 250.614 428.727C250.445 429.158 250.276 429.59 250.107 430.022C247.743 436.063 245.642 441.466 244.779 444.055C244.723 444.186 244.685 444.318 244.648 444.449C244.592 444.655 244.535 444.862 244.479 445.031C244.404 445.294 244.348 445.481 244.348 445.594C244.198 447.995 262.265 545.966 264.329 553.64C264.647 554.835 264.422 561.833 263.784 572.752Z" fill="#908985"/>
<path d="M181.477 366.85L182.932 401.481L208.955 402.929L232.545 394.34V353.303L235.622 360.362L240.793 405.791L170.374 413.299L175.767 368.151L181.477 366.85Z" fill="#7E7670"/>
<path d="M211.676 358.32C211.676 358.32 211.094 362.579 206.535 363.704C202.52 364.717 198.937 361.49 198.167 360.74C198.054 360.646 197.998 360.59 197.998 360.59L198.974 355.599L199.274 354.061L208.111 350.496L208.693 351.772L209.988 354.624L211.226 357.344L211.676 358.32Z" fill="#C7D9BB"/>
<path d="M209.987 354.624C205.597 356.369 201.338 356.031 198.974 355.599L199.274 354.061L208.111 350.496L208.693 351.772L209.987 354.624Z" fill="#C7D9BB"/>
<path d="M263.784 572.752C263.747 573.484 263.69 574.234 263.653 575.003C263.597 575.847 263.559 576.71 263.484 577.592C263.465 577.873 263.465 578.136 263.446 578.418C263.39 579.281 263.333 580.144 263.277 581.045C263.258 581.364 263.221 581.702 263.202 582.021C263.146 582.922 263.089 583.841 263.033 584.779C262.92 586.374 262.808 588.025 262.695 589.713C262.639 590.67 262.564 591.664 262.489 592.659C262.47 593.034 262.433 593.391 262.414 593.785C262.301 595.474 262.17 597.2 262.058 598.963C262.02 599.376 261.983 599.807 261.964 600.239C261.889 601.271 261.814 602.34 261.72 603.41C261.532 606.093 261.326 608.851 261.12 611.684C261.045 612.791 260.951 613.898 260.876 615.023C260.838 615.492 260.801 615.98 260.763 616.449C260.5 619.957 260.238 623.541 259.956 627.199C259.9 627.799 259.862 628.419 259.806 629.019C259.731 630.145 259.637 631.289 259.543 632.434C259.506 632.959 259.468 633.485 259.43 634.01C258.942 640.37 258.436 646.899 257.91 653.522C257.854 654.085 257.816 654.666 257.76 655.248C257.666 656.468 257.572 657.687 257.479 658.925C257.423 659.507 257.385 660.088 257.329 660.651C257.16 662.827 256.991 664.985 256.804 667.161C256.766 667.724 256.729 668.287 256.673 668.831C256.429 671.983 256.185 675.135 255.922 678.287C255.885 678.718 255.847 679.15 255.809 679.581C250.8 741.53 245.472 803.067 245.472 803.067H245.453L214.216 796.594C214.216 796.594 214.31 795.112 214.46 792.542C214.498 791.885 214.554 791.172 214.591 790.403C214.666 789.221 214.741 787.908 214.835 786.482C214.929 785.037 215.023 783.48 215.116 781.81C215.191 780.703 215.247 779.559 215.322 778.358C215.397 777.157 215.472 775.919 215.547 774.643C215.716 772.11 215.866 769.427 216.035 766.651C216.504 758.996 217.011 750.648 217.498 742.524C217.686 739.579 217.854 736.652 218.023 733.819C218.154 731.737 218.267 729.691 218.398 727.703V727.459C218.679 722.825 218.942 718.529 219.167 714.776C219.204 714.176 219.242 713.594 219.261 713.013C219.43 710.48 219.561 708.266 219.655 706.447C219.655 706.391 219.674 706.353 219.655 706.316C219.861 702.995 219.974 700.988 219.974 700.8C219.974 699.468 218.98 698.136 218.811 697.554C218.755 697.385 218.848 697.141 218.98 696.897C219.055 696.784 219.149 696.672 219.224 696.559C219.374 696.353 219.562 696.146 219.712 695.977C219.787 695.902 219.862 695.808 219.937 695.752L220.087 695.602C220.125 695.564 220.143 695.546 220.143 695.546C220.143 695.546 220.143 695.546 220.124 695.546C220.03 695.321 219.186 693.651 218.736 692.863C218.699 692.807 218.68 692.732 218.642 692.657C218.605 692.488 218.623 692.301 218.661 692.113C218.774 691.663 219.092 691.212 219.336 690.893C219.392 690.818 219.449 690.762 219.486 690.705C219.599 690.592 219.655 690.517 219.655 690.517C219.655 690.517 218.98 684.814 217.966 676.221C216.202 661.193 213.369 637.385 211.193 619.956C211.043 618.718 210.893 617.498 210.743 616.335C210.593 615.153 210.462 614.027 210.311 612.939C210.255 612.395 210.18 611.851 210.105 611.326C209.917 609.75 209.73 608.305 209.542 606.955C208.848 601.664 208.36 598.287 208.191 597.987C208.191 597.968 208.191 597.968 208.191 597.968C208.191 597.949 208.172 597.968 208.172 597.968C208.135 597.949 208.078 598.024 208.022 598.174C208.003 598.193 208.003 598.212 207.984 598.249C207.834 598.568 207.646 599.168 207.402 599.975C207.346 600.144 207.308 600.313 207.252 600.5C207.008 601.326 206.708 602.339 206.408 603.521C206.37 603.615 206.333 603.727 206.314 603.84C206.164 604.365 206.014 604.909 205.864 605.491V605.529C205.77 605.885 205.676 606.261 205.583 606.655C205.302 607.687 205.02 608.794 204.72 609.976C204.345 611.439 203.951 613.015 203.538 614.666C203.332 615.435 203.144 616.223 202.956 617.011C202.787 617.63 202.637 618.268 202.487 618.906C202.356 619.413 202.224 619.938 202.093 620.463C202.074 620.576 202.056 620.669 202.018 620.744C201.83 621.57 201.624 622.395 201.418 623.239C201.099 624.533 200.78 625.828 200.461 627.16C200.255 628.042 200.048 628.924 199.823 629.805C199.71 630.255 199.617 630.706 199.504 631.156C199.298 631.982 199.091 632.807 198.904 633.632C198.679 634.57 198.454 635.527 198.229 636.465C198.06 637.216 197.873 637.966 197.704 638.698C197.366 640.161 197.01 641.587 196.672 643.013C196.559 643.52 196.447 644.007 196.334 644.495C195.64 647.497 194.964 650.405 194.327 653.125C194.327 653.163 194.308 653.2 194.308 653.238C193.576 656.39 192.92 659.279 192.357 661.812C192.301 662.112 192.226 662.431 192.151 662.731C191.682 664.851 191.307 666.671 191.007 668.078C191.007 668.134 190.988 668.172 190.969 668.228C190.875 668.735 190.781 669.185 190.706 669.56C190.706 669.598 190.706 669.635 190.687 669.673C190.631 669.973 190.593 670.255 190.537 670.48C190.537 670.499 190.537 670.536 190.518 670.555C190.443 671.024 190.405 671.324 190.424 671.418C190.462 671.906 190.537 672.356 190.63 672.769C190.761 673.407 190.949 673.97 191.137 674.495C191.343 675.002 191.568 675.471 191.794 675.902C191.813 675.958 191.832 675.996 191.85 676.052C192.019 676.558 191.831 677.103 191.531 677.59C191.418 677.778 191.306 677.946 191.175 678.096C190.969 678.377 190.725 678.64 190.575 678.846C190.519 678.921 190.462 678.996 190.425 679.052C190.031 679.634 191.588 681.003 191.588 682.354C191.588 682.861 191.419 683.405 191.194 683.874C190.838 684.681 190.35 685.281 190.35 685.281C190.35 685.281 186.504 738.619 194.121 786.066L173.634 792.351L167.368 794.283C167.368 794.283 162.378 762.971 157.668 733.459C157.668 733.459 157.668 733.459 157.668 733.44C157.33 731.32 156.993 729.2 156.655 727.099C156.655 727.08 156.655 727.08 156.655 727.08C156.467 725.823 156.261 724.566 156.055 723.328C156.055 723.328 156.055 723.328 156.055 723.309C155.924 722.483 155.792 721.677 155.661 720.851C155.605 720.438 155.548 720.025 155.473 719.613C155.342 718.806 155.21 718 155.079 717.212C154.835 715.617 154.591 714.023 154.329 712.484C154.216 711.715 154.104 710.964 153.973 710.214C153.973 710.195 153.973 710.195 153.973 710.195C153.86 709.444 153.729 708.713 153.617 707.981C153.336 706.142 153.054 704.36 152.773 702.653C152.66 701.996 152.567 701.321 152.454 700.683C152.191 699.051 151.947 697.475 151.722 696.011C151.628 695.448 151.534 694.885 151.441 694.323C150.39 687.682 149.696 683.273 149.584 682.541C149.246 680.327 152.079 638.978 154.612 602.656C154.687 601.718 154.762 600.78 154.818 599.861C154.855 599.355 154.893 598.848 154.912 598.323C154.987 597.441 155.043 596.559 155.118 595.678C155.156 595.153 155.193 594.609 155.212 594.065C155.343 592.264 155.475 590.482 155.606 588.718C155.737 586.842 155.869 584.984 155.981 583.165C156.112 581.476 156.225 579.807 156.337 578.193V578.024C156.525 575.585 156.693 573.221 156.843 570.989C156.862 570.576 156.899 570.182 156.918 569.769C157.049 567.93 157.181 566.167 157.293 564.497V564.366C157.387 563.072 157.481 561.833 157.556 560.651V560.52C157.687 558.756 157.8 557.124 157.894 555.68V555.586C157.932 555.117 157.969 554.648 157.988 554.216C158.026 553.784 158.044 553.372 158.082 552.978C158.101 552.546 158.138 552.152 158.157 551.777C158.195 551.214 158.232 550.726 158.251 550.295C158.27 550.145 158.27 549.995 158.27 549.864C158.289 549.601 158.308 549.357 158.326 549.132C158.326 549.019 158.326 548.926 158.345 548.813C158.345 548.644 158.364 548.475 158.364 548.344C158.383 548.194 158.383 548.063 158.383 547.969C158.421 547.05 158.683 545.793 159.096 544.329C159.696 542.265 160.578 539.789 161.591 537.237C161.891 536.487 162.191 535.755 162.491 535.023C162.941 533.916 163.429 532.809 163.879 531.721C164.198 531.008 164.498 530.295 164.798 529.62C164.948 529.264 165.098 528.926 165.248 528.607C165.511 528.044 165.736 527.5 165.98 526.994C166.074 526.806 166.149 526.619 166.243 526.431C166.731 525.324 167.2 524.33 167.575 523.523C167.894 522.847 168.157 522.285 168.344 521.872C168.55 521.44 168.682 521.159 168.738 521.028C168.813 520.84 168.982 519.358 169.188 516.957C169.244 516.432 169.301 515.85 169.338 515.231C169.394 514.593 169.451 513.937 169.507 513.242C169.657 511.478 169.807 509.509 169.976 507.351C170.182 504.725 170.389 501.854 170.614 498.833C170.727 497.37 170.839 495.887 170.952 494.368C172.34 475.269 173.898 452.831 174.01 452.268C174.066 452.024 173.128 450.973 171.665 449.473C170.896 448.666 169.958 447.728 168.926 446.696C168.701 446.452 168.457 446.208 168.194 445.964C166.975 444.726 165.643 443.413 164.348 442.118C163.879 441.63 163.391 441.142 162.922 440.655C162.641 440.355 162.359 440.073 162.059 439.792C161.496 439.192 160.933 438.591 160.389 438.028C159.807 437.39 159.245 436.771 158.757 436.208C157.95 435.289 157.331 434.501 156.937 433.882C156.881 433.769 156.806 433.676 156.768 433.582C156.712 433.488 156.674 433.394 156.637 433.319C156.562 433.15 156.506 432.887 156.468 432.512C156.355 431.217 156.449 428.703 156.712 425.458C156.9 423.132 157.162 420.43 157.481 417.485C157.762 414.802 158.081 411.913 158.438 408.967C161.196 408.611 163.897 408.273 165.586 408.067C166.505 407.954 167.106 407.879 167.293 407.861C168.437 407.748 174.235 369.738 174.235 369.738C174.235 369.738 174.235 369.719 174.254 369.719H174.273V369.7C174.592 369.25 177.856 365.216 181.477 366.83C181.477 366.83 181.477 366.83 181.477 366.849C181.439 367.675 179.845 399.794 179.864 404.221C179.864 408.724 234.572 398.743 234.572 398.743L232.189 353.36C232.189 353.36 236.298 351.277 237.517 352.403L237.536 352.422L243.615 396.079L257.405 393.621H257.424C257.949 395.553 258.4 397.261 258.756 398.687C258.775 398.687 258.756 398.706 258.756 398.706C259.019 399.644 259.225 400.47 259.394 401.145C259.638 402.158 259.807 402.834 259.844 403.077C260.05 404.259 256.805 412.852 253.24 422.026C253.034 422.551 252.827 423.095 252.621 423.621C252.227 424.615 251.833 425.628 251.439 426.642C251.233 427.167 251.026 427.693 250.82 428.218C250.745 428.387 250.689 428.556 250.614 428.725C250.445 429.156 250.276 429.588 250.107 430.02C247.743 436.061 245.642 441.464 244.779 444.053C244.723 444.184 244.685 444.316 244.648 444.447C244.592 444.653 244.535 444.86 244.479 445.029C244.404 445.273 244.366 445.46 244.366 445.573C244.216 447.993 262.283 545.964 264.347 553.637C264.666 554.835 264.422 561.833 263.784 572.752Z" fill="#382F29"/>
<path d="M186.886 457.281L235.622 454.426V458.574L186.886 460.648V457.281Z" fill="#90B277"/>
<path d="M186.886 465.487L235.622 464.104V493.657C235.622 506.352 225.331 516.643 212.637 516.643H209.872C197.177 516.643 186.887 506.352 186.887 493.657V465.487H186.886Z" fill="#90B277"/>
<path d="M167.361 794.288L168.676 803.606L196.507 796.728L194.118 786.076L167.361 794.288Z" fill="#463B33"/>
<path d="M214.215 796.594L213.65 805.193L243.702 812.6L245.462 803.068L214.215 796.594Z" fill="#463B33"/>
<path d="M208.695 351.781C207.68 352.75 206.358 353.426 204.697 353.765C202.621 354.18 200.684 354.165 198.992 353.642C195.455 352.612 192.903 349.475 192.042 343.816C190.766 335.435 188.628 323.057 188.628 323.057L206.542 316.814C206.542 316.814 210.371 331.161 211.37 338.557C212.109 344.031 211.601 349.043 208.695 351.781Z" fill="#C7D9BB"/>
<path d="M222.458 335.435C208.388 330.607 211.679 302.59 211.679 302.59C197.194 297.9 182.093 309.141 180.11 326.194C178.449 340.372 185.43 358.67 187.829 364.437C191.15 363.191 194.395 362.023 197.271 361.039L198.009 360.593L199.285 354.058L198.993 353.643C195.456 352.613 192.904 349.476 192.043 343.817C197.732 336.99 198.009 322.919 198.009 322.919C201.992 335.713 211.372 338.558 211.372 338.558C212.11 344.032 211.603 349.045 208.696 351.782L211.233 357.349C216.769 356.272 225.103 354.658 232.192 353.366C232.315 353.351 232.438 353.32 232.546 353.305C232.022 346.03 229.715 337.926 222.458 335.435Z" fill="#382F29"/>
<path d="M176.284 451.217L195.982 449.986C195.981 449.986 176.037 457.619 176.284 451.217Z" fill="#463B33"/>
<path d="M242.099 447.26H224.276C224.276 447.26 238.749 452.39 242.099 447.26Z" fill="#463B33"/>
<path d="M270.737 468.925L274.615 457.537C274.614 457.537 269.749 460.724 270.737 468.925Z" fill="#C7D9BB"/>
<path d="M186.485 679.061C186.971 681.507 169.823 682.094 169.823 682.094C169.823 682.094 185.786 675.547 186.485 679.061Z" fill="#463B33"/>
<path d="M223.017 690.524C223.312 693.414 239.209 694.378 239.209 694.378C239.209 694.378 222.722 687.634 223.017 690.524Z" fill="#463B33"/>
<path d="M188.628 420.714L186.886 397.386H203.346L201.6 418.927L188.628 420.714Z" fill="#90B277"/>
<path d="M202.642 406.847C201.76 406.509 195.982 414.539 195.982 414.539L190.129 416.171C190.129 416.171 190.448 409.042 189.566 409.042C188.703 409.042 186.133 421.368 186.133 421.368C186.133 421.368 170.542 434.726 162.925 440.654C160.674 442.418 159.098 443.525 158.854 443.431C158.479 443.3 158.535 440.223 158.76 436.208C157.691 434.989 156.921 433.975 156.64 433.319C156.133 432.175 156.584 425.702 157.484 417.485L143.676 418.592C143.676 418.592 141.894 466.583 142.325 467.24C142.775 467.915 146.79 472.606 149.567 472.381C151.049 472.268 161.931 460.393 171.668 449.474C179.998 440.112 187.484 431.445 187.484 431.445C187.484 431.445 201.649 424.972 202.643 423.959C203.636 422.944 203.523 407.166 202.642 406.847Z" fill="#C7D9BB"/>
<path d="M156.714 425.458C156.433 428.722 156.339 431.218 156.47 432.512C156.489 432.887 156.545 433.15 156.62 433.319C156.658 433.394 156.695 433.488 156.77 433.582C156.808 433.676 156.864 433.77 156.939 433.882C157.333 434.501 157.952 435.289 158.759 436.208C159.247 436.771 159.81 437.39 160.391 438.028C159.434 438.197 158.44 438.328 157.427 438.403C145.908 439.379 131.931 435.307 131.931 435.307C131.931 435.307 155.457 383.789 156.958 381.406C158.478 379.023 163.074 374.915 163.074 374.915C162.961 375.309 162.267 379.905 161.367 386.359C160.448 392.813 159.36 401.143 158.421 408.985C157.69 415.14 157.052 421.012 156.714 425.458Z" fill="#908985"/>
<path d="M158.759 436.208C159.247 436.771 159.81 437.39 160.391 438.028C159.434 438.197 158.44 438.328 157.427 438.403L152.174 431.142L161.367 386.359C160.448 392.813 159.36 401.143 158.421 408.985C157.689 415.139 157.051 421.011 156.714 425.457C156.433 428.721 156.339 431.217 156.47 432.511C156.489 432.886 156.545 433.149 156.62 433.318C156.658 433.393 156.695 433.487 156.77 433.581C156.808 433.675 156.864 433.769 156.939 433.881C157.333 434.501 157.953 435.289 158.759 436.208Z" fill="#7E7670"/>
<path d="M158.853 443.432L149.557 449.986C149.558 449.986 156.893 440.844 158.853 443.432Z" fill="#C7D9BB"/>
</svg>
