<svg viewBox="0 0 874 1030" fill="none" xmlns="http://www.w3.org/2000/svg">
<path d="M460.976 1029.55C584.163 1029.55 684.026 1018.48 684.026 1004.83C684.026 991.183 584.163 980.117 460.976 980.117C337.789 980.117 237.926 991.183 237.926 1004.83C237.926 1018.48 337.789 1029.55 460.976 1029.55Z" fill="#EDEBEB"/>
<path d="M873.449 549.634C873.449 573.605 871.364 597.186 867.456 619.986C853.385 702.064 815.082 775.803 760.234 833.648C733.917 861.268 703.822 885.24 670.861 904.782C613.406 938.785 546.963 959.37 475.959 961.846H475.829C470.878 961.976 465.927 962.106 460.977 962.106C403.523 962.106 348.805 950.381 299.037 929.145H298.907C202.757 887.976 125.5 811.631 83.42 716.134V716.004C60.881 665.063 48.374 608.912 48.374 549.634C48.374 494.003 233.114 449.056 460.976 449.056C688.838 449.056 873.449 494.004 873.449 549.634Z" fill="#DAD8D6"/>
<path d="M665.388 880.55C662.653 888.758 666.561 896.706 670.86 904.783C613.405 938.786 546.962 959.371 475.958 961.847C478.042 957.156 479.345 952.076 478.954 945.822C478.172 934.228 471.919 923.935 467.229 913.252C462.669 902.569 459.542 889.932 465.144 879.769C468.662 873.255 475.046 868.826 480.908 864.265C492.633 855.016 502.795 843.812 510.742 831.174C513.087 827.526 515.432 823.488 519.211 821.403C527.288 816.974 536.799 823.097 544.616 828.048C567.545 842.639 595.817 848.633 622.655 844.594C626.824 844.072 631.123 843.16 635.292 843.812C639.071 844.333 642.588 846.287 646.106 848.111C657.571 854.104 668.905 860.098 680.37 866.09C673.987 869.215 667.604 873.775 665.388 880.55Z" fill="#A39D99"/>
<path opacity="0.1" d="M465.054 669.783C465.11 669.936 465.164 670.091 465.216 670.248C466.986 675.564 466.757 681.31 466.498 686.908C464.959 720.194 463.071 753.463 460.835 786.709C459.947 799.908 459.664 814.95 469.144 824.178C474.584 829.474 482.294 831.722 489.805 832.827C493.385 833.354 497.171 833.64 500.505 832.232C509.267 828.533 509.705 816.533 509.234 807.033C508.706 796.379 508.83 785.693 509.604 775.054C510.142 767.667 511.119 759.951 515.37 753.886C521.446 745.216 534.921 742.971 540.359 753.493C542.058 756.781 542.688 760.505 543.196 764.171C547.214 793.183 546.353 823.393 543.022 852.43C541.824 862.875 540.279 873.841 544.193 883.6C548.12 893.391 557.667 900.69 568.145 901.911C578.623 903.133 589.593 898.227 595.668 889.602C601.728 880.998 602.753 869.888 602.811 859.364C602.896 843.743 601.287 828.114 598.02 812.839C597.074 808.417 595.983 803.912 596.526 799.423C597.069 794.934 599.646 790.371 603.92 788.895C615.061 785.046 620.206 800.137 620.139 808.282C620.086 814.703 618.865 821.24 620.406 827.474C623.522 840.085 638.907 848.963 650.236 840.035C657.472 834.332 658.535 823.89 658.354 814.679C657.799 786.469 651.099 758.296 654.342 730.268C658.039 698.323 674.445 668.716 676.779 636.643C677.158 631.429 717.341 631.546 713.626 627.87C710.395 624.672 665.053 618.101 660.52 617.755C634.478 615.768 608.159 616.225 582.054 616.179C555.262 616.131 528.163 616.466 502.194 623.057C483.922 627.695 466.448 635.42 450.704 645.785C444.892 649.611 437.314 654.839 447.161 656.74C454.878 658.229 462.247 662.058 465.054 669.783Z" fill="black"/>
<path d="M873.449 549.634C873.449 605.134 688.839 650.211 460.976 650.211C233.113 650.211 48.374 605.134 48.374 549.634C48.374 494.003 233.114 449.056 460.976 449.056C688.838 449.056 873.449 494.004 873.449 549.634Z" fill="#b4cba3"/>
<path d="M375.381 883.416C370.43 891.233 363.005 897.616 354.406 901.134C347.241 904.13 339.554 905.173 332.258 907.518C319.491 911.818 308.807 919.895 299.036 929.145H298.906C202.757 887.976 125.5 811.631 83.42 716.134V716.004C85.244 709.88 88.892 704.409 94.624 701.803C101.66 698.676 109.867 700.761 116.902 703.887C119.898 705.19 122.894 706.884 124.719 709.619C127.846 714.439 126.022 720.693 125.631 726.426C124.459 742.19 135.272 757.042 149.212 764.468C163.152 771.894 179.568 773.066 195.462 772.545C200.282 772.284 206.145 771.373 208.23 767.073C209.402 764.728 209.272 761.992 209.142 759.386C208.751 751.309 209.142 743.101 210.575 735.154C211.487 729.813 213.31 723.95 218.132 721.475C220.086 720.433 222.3 720.042 224.646 719.912C243.015 718.739 261.515 730.074 268.811 747.01C278.843 770.331 269.333 801.468 287.181 819.447C299.297 831.824 318.839 831.824 336.297 832.997C353.625 834.039 373.949 839.511 379.681 855.927C382.937 864.916 380.462 875.208 375.381 883.416Z" fill="#A39D99"/>
<path d="M867.455 619.986C853.384 702.064 815.081 775.803 760.233 833.648C759.191 823.356 759.06 812.412 751.244 807.852C742.385 802.64 732.874 798.341 723.103 795.084C713.984 791.957 704.603 789.612 696.395 784.662C688.187 779.711 681.283 771.503 680.631 761.993C680.37 755.609 682.846 749.486 684.799 743.363C689.49 729.032 691.444 712.747 684.669 699.197C682.584 694.897 679.588 690.989 678.545 686.299C677.633 681.609 679.457 675.877 684.017 674.573C686.362 673.922 688.837 674.573 691.183 675.095C714.112 680.436 739.387 673.792 756.714 657.898C761.534 653.468 765.834 648.257 771.305 644.739C791.759 631.711 820.161 644.609 842.439 635.098C851.301 631.321 858.857 624.025 867.455 619.986Z" fill="#A39D99"/>
<path d="M456.878 664.237C456.934 664.39 456.988 664.545 457.04 664.702C458.81 670.018 458.581 675.764 458.322 681.362C456.783 714.648 454.895 747.917 452.659 781.163C451.771 794.362 451.488 809.404 460.968 818.632C466.408 823.928 474.118 826.176 481.629 827.281C485.209 827.808 488.995 828.094 492.329 826.686C501.091 822.987 501.529 810.987 501.058 801.487C500.53 790.833 500.654 780.147 501.428 769.508C501.966 762.121 502.943 754.405 507.194 748.34C513.27 739.67 526.745 737.425 532.183 747.947C533.882 751.235 534.512 754.959 535.02 758.625C539.038 787.637 538.177 817.847 534.846 846.884C533.648 857.329 532.103 868.295 536.017 878.054C539.944 887.845 549.491 895.144 559.969 896.365C570.447 897.586 581.417 892.681 587.492 884.056C593.552 875.452 594.577 864.342 594.635 853.818C594.72 838.197 593.111 822.568 589.844 807.293C588.898 802.871 587.807 798.366 588.35 793.877C588.893 789.388 591.47 784.825 595.744 783.349C606.885 779.501 612.03 794.591 611.963 802.736C611.91 809.157 610.689 815.694 612.23 821.928C615.346 834.539 630.731 843.417 642.06 834.489C649.296 828.786 650.359 818.344 650.178 809.133C649.623 780.923 642.923 752.75 646.166 724.722C649.863 692.777 666.269 663.17 668.603 631.097C668.982 625.883 668.744 620.023 665.029 616.346C661.798 613.148 656.877 612.555 652.344 612.209C626.302 610.222 599.983 610.679 573.878 610.633C547.086 610.585 519.986 610.92 494.018 617.511C475.746 622.149 458.272 629.874 442.528 640.239C436.716 644.065 429.138 649.293 438.985 651.194C446.702 652.683 454.071 656.512 456.878 664.237Z" fill="#b4cba3"/>
<path d="M641.986 603.903C641.737 604.31 641.42 604.695 641.036 605.034C638.728 607.003 634.135 607.636 630.152 607.636C625.513 607.659 620.422 607.319 616.666 609.13C613.815 610.488 612.367 612.818 609.697 614.334C606.167 616.348 601.189 616.597 596.551 616.778C590.328 617.004 584.083 617.23 577.861 617.457C573.245 617.638 568.516 617.796 564.081 616.936C558.945 615.94 540.39 613.678 536.204 611.483C533.896 610.261 531.95 609.062 530.683 607.84C528.511 605.781 528.33 603.654 531.724 601.346C537.381 597.341 542.947 596.119 549.69 595.87C559.329 595.508 564.692 594.082 572.589 591.254C580.35 588.494 589.786 588.788 598.384 590.077C606.96 591.367 615.219 593.607 623.908 594.557C628.275 595.055 632.846 595.236 636.738 596.639C640.628 598.042 643.592 601.187 641.986 603.903Z" fill="#A5B3AC"/>
<path d="M641.035 605.034C638.727 607.003 634.134 607.636 630.151 607.636C625.512 607.659 620.421 607.319 616.665 609.13C613.814 610.488 612.366 612.818 609.696 614.334C606.166 616.348 601.188 616.597 596.55 616.778C590.327 617.004 584.082 617.23 577.86 617.457C573.244 617.638 568.515 617.796 564.08 616.936C558.944 615.94 540.389 613.678 536.203 611.483C533.895 610.261 531.949 609.062 530.682 607.84C530.976 607.568 531.338 607.297 531.723 607.025C537.38 603.02 542.946 601.798 549.689 601.549C559.328 601.21 564.691 599.761 572.588 596.956C580.349 594.195 589.785 594.467 598.383 595.757C606.959 597.069 615.218 599.287 623.907 600.26C628.274 600.735 632.845 600.939 636.737 602.342C638.456 602.952 639.994 603.925 641.035 605.034Z" fill="#A39D99"/>
<path fill-rule="evenodd" clip-rule="evenodd" d="M81.24 393.921L84.331 399.17C86.239 402.409 85.127 406.523 81.944 408.399L72.673 413.858C69.434 415.765 65.296 414.742 63.389 411.503L60.298 406.254C58.037 406.758 55.734 407.061 53.388 407.164L51.905 413.076C50.964 416.714 47.222 418.917 43.584 417.976L33.202 415.29C29.564 414.349 27.394 410.663 28.335 407.025L29.873 401.08C27.96 399.875 26.093 398.493 24.328 396.9L19.079 399.991C15.84 401.898 11.67 400.819 9.79501 397.636L4.33601 388.365C2.42901 385.126 3.50801 380.956 6.74701 379.048L11.996 375.957C11.492 373.696 11.189 371.393 11.03 369.08L5.11801 367.597C1.48001 366.656 -0.722989 362.914 0.218011 359.276L2.90401 348.894C3.84601 345.256 7.58701 343.053 11.225 343.994L17.114 345.565C18.375 343.619 19.757 341.752 21.294 340.02L18.203 334.77C16.296 331.531 17.375 327.36 20.614 325.453L29.885 319.994C33.068 318.12 37.239 319.199 39.146 322.438L42.237 327.688C44.553 327.152 46.857 326.848 49.114 326.722L50.652 320.777C51.593 317.139 55.279 314.969 58.917 315.91L69.299 318.596C72.937 319.538 75.14 323.279 74.199 326.917L72.628 332.806C74.63 334.034 76.497 335.416 78.229 336.953L83.478 333.862C86.717 331.955 90.832 333.067 92.739 336.306L98.198 345.577C100.072 348.76 99.049 352.897 95.81 354.805L90.561 357.896C91.097 360.212 91.401 362.516 91.471 364.806L97.416 366.344C101.054 367.285 103.224 370.971 102.283 374.609L99.597 384.991C98.656 388.629 94.97 390.799 91.332 389.858L85.387 388.32C84.215 390.289 82.833 392.156 81.24 393.921ZM39.949 347.687C29.282 353.969 25.747 367.634 32.028 378.3C38.277 388.91 51.974 392.502 62.641 386.221C73.252 379.972 76.811 366.219 70.562 355.608C64.28 344.941 50.559 341.439 39.949 347.687Z" fill="#DAD8D6"/>
<path fill-rule="evenodd" clip-rule="evenodd" d="M136.626 443.637L138.342 446.55C139.4 448.347 138.783 450.631 137.014 451.672L131.869 454.702C130.072 455.761 127.776 455.193 126.717 453.395L125.001 450.482C123.746 450.762 122.468 450.93 121.166 450.987L120.343 454.268C119.821 456.288 117.744 457.51 115.725 456.988L109.963 455.497C107.944 454.975 106.74 452.929 107.262 450.91L108.116 447.611C107.054 446.942 106.018 446.175 105.038 445.291L102.125 447.007C100.328 448.066 98.013 447.467 96.973 445.7L93.943 440.555C92.885 438.757 93.483 436.443 95.281 435.384L98.194 433.668C97.915 432.413 97.746 431.135 97.658 429.851L94.377 429.028C92.357 428.506 91.135 426.429 91.657 424.41L93.148 418.648C93.671 416.628 95.747 415.406 97.766 415.928L101.035 416.8C101.735 415.72 102.502 414.684 103.355 413.722L101.639 410.809C100.58 409.011 101.179 406.697 102.977 405.638L108.122 402.608C109.889 401.568 112.203 402.166 113.262 403.964L114.978 406.877C116.264 406.579 117.542 406.411 118.795 406.341L119.649 403.042C120.171 401.023 122.217 399.819 124.236 400.341L129.998 401.832C132.018 402.355 133.24 404.431 132.718 406.45L131.846 409.719C132.957 410.401 133.993 411.168 134.955 412.021L137.868 410.305C139.666 409.246 141.949 409.863 143.008 411.661L146.038 416.806C147.079 418.572 146.511 420.868 144.713 421.927L141.8 423.643C142.098 424.929 142.266 426.207 142.305 427.478L145.604 428.332C147.623 428.854 148.827 430.9 148.305 432.919L146.814 438.681C146.292 440.7 144.246 441.904 142.227 441.382L138.928 440.528C138.277 441.621 137.51 442.657 136.626 443.637ZM113.71 417.977C107.79 421.463 105.828 429.047 109.314 434.967C112.782 440.856 120.384 442.849 126.304 439.363C132.193 435.895 134.168 428.262 130.7 422.373C127.214 416.453 119.599 414.509 113.71 417.977Z" fill="#DAD8D6"/>
<path fill-rule="evenodd" clip-rule="evenodd" d="M72.631 291.239L74.041 293.633C74.91 295.11 74.403 296.986 72.953 297.842L68.726 300.331C67.249 301.201 65.363 300.734 64.493 299.257L63.083 296.863C62.052 297.093 61.002 297.231 59.932 297.278L59.256 299.974C58.827 301.633 57.121 302.637 55.462 302.208L50.728 300.983C49.068 300.554 48.079 298.873 48.508 297.214L49.209 294.503C48.336 293.954 47.485 293.323 46.68 292.597L44.286 294.007C42.809 294.877 40.908 294.385 40.053 292.933L37.564 288.706C36.694 287.23 37.186 285.328 38.663 284.458L41.057 283.048C40.827 282.017 40.689 280.967 40.616 279.912L37.92 279.236C36.261 278.807 35.257 277.101 35.686 275.442L36.911 270.708C37.34 269.05 39.046 268.045 40.705 268.474L43.391 269.19C43.966 268.302 44.596 267.451 45.297 266.661L43.887 264.267C43.017 262.79 43.509 260.889 44.986 260.019L49.213 257.53C50.664 256.675 52.566 257.167 53.436 258.644L54.846 261.038C55.902 260.793 56.953 260.654 57.982 260.597L58.683 257.886C59.112 256.227 60.793 255.237 62.452 255.666L67.186 256.891C68.844 257.32 69.849 259.026 69.42 260.685L68.704 263.371C69.617 263.931 70.468 264.561 71.258 265.262L73.652 263.852C75.129 262.982 77.005 263.489 77.875 264.966L80.364 269.193C81.219 270.645 80.752 272.531 79.275 273.401L76.881 274.811C77.126 275.867 77.264 276.918 77.296 277.962L80.007 278.663C81.666 279.092 82.656 280.773 82.227 282.432L81.002 287.166C80.573 288.826 78.892 289.815 77.233 289.386L74.522 288.685C73.988 289.583 73.357 290.434 72.631 291.239ZM53.803 270.157C48.939 273.021 47.327 279.252 50.191 284.116C53.04 288.955 59.286 290.592 64.15 287.728C68.988 284.879 70.611 278.608 67.762 273.769C64.898 268.905 58.641 267.308 53.803 270.157Z" fill="#DAD8D6"/>
<path d="M425.147 367.011V499.058H331.01V367.011L345.021 181.943C367.069 171.8 389.138 171.819 411.228 181.943L425.147 367.011Z" fill="#8a9e7a"/>
<rect x="495.314" y="211.354" width="149.568" height="287.689" fill="#8a9e7a"/>
<rect x="707.837" y="499.044" width="62.956" height="225.878" transform="rotate(-180 707.837 499.044)" fill="#DAD8D6"/>
<rect x="425.108" y="355.199" width="129.918" height="143.845" fill="#DAD8D6"/>
<path d="M410.223 152.396C415.483 148.555 419.869 143.529 423.535 138.117C430.805 127.384 436.233 114.241 447.803 108.395C454.397 105.063 462.034 104.678 469.414 104.357C481.076 103.85 492.739 103.343 504.401 102.836C515.031 102.374 525.457 102.755 535.568 99.336C542.631 96.948 545.698 92.14 548.634 85.534C553.683 74.172 559.597 63.088 567.507 53.494C571.353 48.83 575.739 44.477 581.08 41.644C591.447 36.145 602.004 39.59 612.162 43.694C599.201 21.236 571.553 5.49 545.649 14.8C535.999 18.268 527.742 25.007 517.973 28.126C507.617 31.433 496.463 30.416 485.593 30.236C474.723 30.056 463.157 30.982 454.375 37.39C447.881 42.128 443.657 49.368 440.564 56.788C435.077 69.948 431.853 84.712 422.546 95.922C417.708 101.75 411.141 104.034 404.622 107.279C397.606 110.771 391.455 116.013 386.934 122.418C381.458 130.175 375.027 144.509 379.682 153.851C384.546 163.613 399.088 159.077 406.453 154.85C407.757 154.101 409.013 153.28 410.223 152.396Z" fill="#EDEBEB"/>
<rect x="441.515" y="393.545" width="16.025" height="42.924" fill="#8a9e7a"/>
<rect x="474.042" y="393.545" width="16.025" height="42.924" fill="#8a9e7a"/>
<rect x="506.569" y="393.545" width="16.025" height="42.924" fill="#8a9e7a"/>
<rect x="655.374" y="293.777" width="16.025" height="42.924" fill="#8a9e7a"/>
<rect x="676.36" y="293.777" width="16.025" height="42.924" fill="#8a9e7a"/>
<rect x="655.374" y="350.62" width="16.025" height="42.924" fill="#8a9e7a"/>
<rect x="676.36" y="350.62" width="16.025" height="42.924" fill="#8a9e7a"/>
<rect x="655.374" y="407.464" width="16.025" height="42.924" fill="#8a9e7a"/>
<rect x="676.36" y="407.464" width="16.025" height="42.924" fill="#8a9e7a"/>
<path d="M519.735 59.568L574.77 114.603C581.326 121.159 581.326 131.757 574.77 138.313C568.214 144.869 557.592 144.894 551.036 138.338L496.001 83.303C491.072 78.374 489.839 71.128 492.329 65.089L485.453 57.177C483.728 55.205 484.122 51.952 486.266 49.808C488.386 47.688 491.639 47.294 493.611 49.019L501.522 55.895C503.543 55.057 505.687 54.638 507.856 54.638C512.144 54.639 516.457 56.29 519.735 59.568Z" fill="#DAD8D6"/>
<path opacity="0.1" d="M574.763 138.304C568.21 144.857 557.579 144.891 551.027 138.339L495.99 83.303C493.306 80.619 491.738 77.273 491.25 73.753C492.575 73.195 500.155 78.733 501.9 82.516C505.047 89.337 521.554 102.394 523.541 104.172C528.386 108.494 532.937 113.782 536.249 119.428C539.56 125.04 544.928 126.977 550.888 129.626C556.744 132.205 563.54 131.508 569.64 129.626C572.289 128.824 574.973 127.709 576.89 125.687C578.459 123.979 578.563 122.515 578.668 120.738C580.828 126.663 579.503 133.564 574.763 138.304Z" fill="black"/>
<path d="M553.011 114.101L508.022 69.112C507.341 68.431 506.238 68.431 505.557 69.112C504.876 69.793 504.876 70.895 505.557 71.577L550.546 116.566C549.792 118.305 550.117 120.398 551.538 121.82C553.396 123.678 556.407 123.678 558.264 121.82C560.121 119.962 560.121 116.951 558.264 115.094C556.843 113.672 554.75 113.347 553.011 114.101Z" fill="#312924"/>
<path d="M513.723 95.247L510.847 98.123C510.166 98.804 509.063 98.804 508.382 98.123C507.701 97.442 507.701 96.34 508.382 95.658L511.258 92.782C511.939 92.101 513.042 92.101 513.723 92.782C514.404 93.463 514.404 94.566 513.723 95.247Z" fill="#474C4A"/>
<path d="M530.769 112.294L527.893 115.17C527.212 115.851 526.109 115.851 525.428 115.17C524.747 114.489 524.747 113.387 525.428 112.705L528.304 109.829C528.985 109.148 530.088 109.148 530.769 109.829C531.451 110.51 531.451 111.613 530.769 112.294Z" fill="#474C4A"/>
<path d="M506.431 85.491L502.322 89.6C501.641 90.281 500.539 90.281 499.857 89.6C499.176 88.919 499.176 87.817 499.857 87.135L503.966 83.026C504.647 82.345 505.749 82.345 506.431 83.026C507.113 83.707 507.112 84.81 506.431 85.491Z" fill="#9EBC88"/>
<path d="M523.478 102.538L519.369 106.647C518.688 107.328 517.586 107.328 516.904 106.647C516.222 105.966 516.223 104.864 516.904 104.182L521.013 100.073C521.694 99.392 522.797 99.392 523.478 100.073C524.159 100.754 524.159 101.857 523.478 102.538Z" fill="#9EBC88"/>
<path d="M540.526 119.586L536.417 123.695C535.736 124.376 534.633 124.376 533.952 123.695C533.271 123.014 533.271 121.912 533.952 121.23L538.061 117.121C538.742 116.44 539.845 116.44 540.526 117.121C541.207 117.802 541.207 118.904 540.526 119.586Z" fill="#9EBC88"/>
<path d="M547.816 129.341L544.94 132.217C544.259 132.898 543.157 132.898 542.475 132.217C541.794 131.536 541.794 130.434 542.475 129.752L545.351 126.876C546.032 126.195 547.134 126.195 547.816 126.876C548.498 127.557 548.497 128.659 547.816 129.341Z" fill="#474C4A"/>
<path d="M431.352 553.622C411.003 555.131 389.701 563.557 402.347 566.592C414.994 569.627 424.605 578.227 402.347 582.274C380.089 586.321 406.638 603.52 432.568 591.885C458.498 580.25 447.257 581.261 473.562 579.688C499.867 578.114 512.71 564.315 488.344 563.894C462.529 563.447 466.882 562.808 456.872 559.388C446.863 555.969 441.148 552.895 431.352 553.622Z" fill="#A39D99"/>
<path d="M304.955 585.608H139.823C133.51 585.608 130.15 578.16 134.326 573.427L169.848 533.169H344.072C350.385 533.169 353.745 540.616 349.569 545.35L320.063 578.79C316.238 583.125 310.736 585.608 304.955 585.608Z" fill="#DAD8D6"/>
<path d="M213.032 434.547L218.415 440.59L244.982 416.927L271.549 440.59L276.932 434.547L251.065 411.509L277.054 388.361L271.671 382.318L244.982 406.09L218.293 382.318L212.91 388.361L238.899 411.509L213.032 434.547Z" fill="#9EBC88"/>
<path d="M294.36 438.792L290.448 431.706L244.982 456.795L199.514 431.706L195.606 438.792L236.605 461.418L195.801 483.934L199.712 491.024L244.983 466.041L290.254 491.024L294.167 483.934L253.361 461.418L294.36 438.792Z" fill="#9EBC88"/>
<path d="M201.012 510.947V513.213L200.243 515.965L201.012 510.947Z" fill="#9EBC88"/>
<path d="M321.085 508.114V559.389H288.709V513.213L289.478 515.965L288.709 510.947V513.213L244.881 356.475L201.012 513.213V510.947L200.243 515.965L201.012 513.213V559.389H168.637V508.114L169.406 505.969L236.989 323.25L244.881 325.8L252.732 323.25L320.275 505.969L321.085 508.114Z" fill="#A39D99"/>
<path d="M289.478 515.965L288.709 513.213V510.947L289.478 515.965Z" fill="#9EBC88"/>
<path d="M201.012 546.358H168.637C166.868 546.358 165.433 547.792 165.433 549.562V556.185C165.433 557.954 166.867 559.389 168.637 559.389H201.012C202.781 559.389 204.216 557.955 204.216 556.185V549.562C204.216 547.792 202.782 546.358 201.012 546.358Z" fill="#9EBC88"/>
<path d="M324.525 549.555V556.192C324.525 557.973 323.108 559.389 321.328 559.389H288.953C287.172 559.389 285.756 557.973 285.756 556.192V549.555C285.756 547.774 287.172 546.358 288.953 546.358H321.328C322.461 546.358 323.473 546.965 324.04 547.855C324.363 548.34 324.525 548.907 324.525 549.555Z" fill="#9EBC88"/>
<path d="M425.154 383.3L156.442 318.98L166.48 281.518L431.352 360.172L425.154 383.3Z" fill="#9EBC88"/>
<path d="M184.172 330.076L124.925 314.201C120.776 313.089 118.314 308.825 119.425 304.675L120.505 300.644C121.617 296.495 125.881 294.033 130.031 295.144L189.278 311.019C193.427 312.131 195.889 316.395 194.778 320.545L193.698 324.576C192.586 328.725 188.321 331.188 184.172 330.076Z" fill="#b4cba3"/>
<path d="M130.357 238.147L156.662 245.195C173.483 249.702 183.466 266.993 178.959 283.814L172.849 306.617L117.634 291.822C113.316 290.665 110.754 286.227 111.911 281.909L122.407 242.737C123.334 239.274 126.893 237.219 130.357 238.147Z" fill="#A39D99"/>
<path opacity="0.1" d="M428.471 370.921L425.151 383.313L192.149 327.542C190.246 329.797 187.194 330.865 184.185 330.058L124.924 314.179C120.78 313.069 118.319 308.806 119.43 304.663L120.509 300.637C120.771 299.66 121.228 298.735 121.81 297.969C124.072 298.282 126.34 298.889 128.557 299.526C138.853 302.536 148.986 307.095 159.627 307.097C160.216 307.087 160.766 307.067 161.355 307.057C164.322 306.93 167.237 306.371 170.17 305.9C171.145 305.7 172.16 305.511 173.163 305.361C174.078 305.229 174.954 305.087 175.859 304.994C193.286 303.128 210.067 311.018 226.401 317.447C250.381 326.931 275.38 333.546 300.302 340.14C328.095 347.587 355.93 354.878 383.986 361.348C398.077 364.579 413.159 366.148 426.949 370.346C427.497 370.492 427.984 370.707 428.471 370.921Z" fill="black"/>
<path d="M244.861 351.326C260.728 351.326 273.591 338.463 273.591 322.596C273.591 306.729 260.728 293.866 244.861 293.866C228.994 293.866 216.131 306.729 216.131 322.596C216.131 338.463 228.994 351.326 244.861 351.326Z" fill="#A39D99"/>
<path d="M244.861 333.722C251.006 333.722 255.987 328.741 255.987 322.596C255.987 316.451 251.006 311.47 244.861 311.47C238.716 311.47 233.735 316.451 233.735 322.596C233.735 328.741 238.716 333.722 244.861 333.722Z" fill="#312924"/>
<rect x="425.172" y="349.402" width="31.701" height="56.236" fill="#b4cba3"/>
<path d="M456.873 405.637H425.172L439.926 431.858L456.873 405.637Z" fill="#A39D99"/>
<path d="M446.671 332.792H435.373C426.2 332.792 418.764 340.228 418.764 349.401V349.401H463.28V349.401C463.28 340.229 455.844 332.792 446.671 332.792Z" fill="#A39D99"/>
<path opacity="0.1" d="M463.267 349.412H456.873V405.624L439.916 431.848L434.169 421.609C434.574 421.083 435.059 420.597 435.545 420.152C439.632 416.388 444.934 413.839 448.091 409.225C448.86 408.092 449.467 406.878 449.952 405.623C451.166 402.548 451.611 399.107 451.935 395.789C453.23 381.665 452.218 367.339 448.9 353.539C448.536 352.163 448.05 349.411 448.05 349.411C448.05 349.411 452.583 346.821 452.947 345.809C453.878 343.098 451.53 339.658 449.871 337.715C448.535 336.137 445.905 334.639 444.327 332.778H446.674C451.288 332.778 455.416 334.64 458.41 337.634C461.405 340.67 463.267 344.798 463.267 349.412Z" fill="black"/>
<path d="M425.172 383.313C432.621 383.313 438.66 377.274 438.66 369.825C438.66 362.376 432.621 356.337 425.172 356.337C417.723 356.337 411.684 362.376 411.684 369.825C411.684 377.274 417.723 383.313 425.172 383.313Z" fill="#A39D99"/>
<path d="M425.172 377.221C429.257 377.221 432.568 373.91 432.568 369.825C432.568 365.74 429.257 362.429 425.172 362.429C421.087 362.429 417.776 365.74 417.776 369.825C417.776 373.91 421.087 377.221 425.172 377.221Z" fill="#312924"/>
<path d="M439.916 575.575C437.679 575.575 435.869 573.765 435.869 571.528V425.961C435.869 423.726 437.679 421.914 439.916 421.914C442.153 421.914 443.963 423.726 443.963 425.961V571.528C443.962 573.765 442.152 575.575 439.916 575.575Z" fill="#312924"/>
<path opacity="0.1" d="M324.525 549.555V556.192C324.525 557.973 323.108 559.389 321.328 559.389H288.953C287.172 559.389 285.756 557.973 285.756 556.192V554.856C285.796 554.856 285.796 554.856 285.837 554.856C296.642 555.342 307.488 555.382 318.293 554.978C324.04 554.775 320.074 548.867 324.04 547.855C324.363 548.34 324.525 548.907 324.525 549.555Z" fill="black"/>
<path opacity="0.1" d="M204.209 549.555V556.192C204.209 557.973 202.792 559.389 201.012 559.389H168.637C166.856 559.389 165.44 557.973 165.44 556.192V554.856C165.481 554.856 165.481 554.856 165.521 554.856C176.326 555.342 187.172 555.382 197.977 554.978C203.724 554.775 199.758 548.867 203.724 547.855C204.047 548.34 204.209 548.907 204.209 549.555Z" fill="black"/>
<rect x="753.46" y="544.51" width="5.336" height="40.674" fill="#90B277"/>
<rect x="823.106" y="585.183" width="5.336" height="40.674" transform="rotate(-180 823.106 585.183)" fill="#90B277"/>
<rect x="748.124" y="576.839" width="5.336" height="80.318" transform="rotate(-90 748.124 576.839)" fill="#90B277"/>
<path d="M836.867 517.858V547.042C836.867 547.311 836.867 547.581 836.8 547.851C836.463 549.267 835.317 550.412 833.902 550.749C833.633 550.816 833.363 550.816 833.093 550.816H743.451C741.362 550.816 739.677 549.131 739.677 547.042V517.858C739.677 515.769 741.362 514.084 743.451 514.084H833.093C833.362 514.084 833.632 514.084 833.834 514.151C835.586 514.488 836.867 516.038 836.867 517.858Z" fill="#9EBC88"/>
<path d="M768.591 514.084L739.676 543.066V531.877L757.47 514.084H768.591Z" fill="#A39D99"/>
<path d="M794.135 514.084L757.403 550.817H746.214L782.947 514.084H794.135Z" fill="#A39D99"/>
<path d="M819.613 514.084L782.88 550.817H771.691L808.424 514.084H819.613Z" fill="#A39D99"/>
<path d="M836.867 517.858V522.307L808.357 550.817H797.168L833.834 514.151C835.586 514.488 836.867 516.038 836.867 517.858Z" fill="#A39D99"/>
<path d="M836.867 536.662V547.042C836.867 547.311 836.867 547.581 836.8 547.851L833.902 550.749C833.633 550.816 833.363 550.816 833.093 550.816H822.714L836.867 536.662Z" fill="#A39D99"/>
<rect x="337.913" y="590.572" width="5.336" height="40.674" fill="#90B277"/>
<rect x="407.56" y="631.247" width="5.336" height="40.674" transform="rotate(-180 407.56 631.247)" fill="#90B277"/>
<rect x="332.577" y="622.902" width="5.336" height="80.318" transform="rotate(-90 332.577 622.902)" fill="#90B277"/>
<path d="M421.32 563.921V593.105C421.32 593.374 421.32 593.644 421.253 593.914C420.916 595.33 419.77 596.475 418.355 596.812C418.086 596.879 417.816 596.879 417.546 596.879H327.904C325.815 596.879 324.13 595.194 324.13 593.105V563.921C324.13 561.832 325.815 560.147 327.904 560.147H417.546C417.815 560.147 418.085 560.147 418.287 560.214C420.039 560.551 421.32 562.101 421.32 563.921Z" fill="#9EBC88"/>
<path d="M353.044 560.146L324.13 589.128V577.94L341.923 560.146H353.044Z" fill="#A39D99"/>
<path d="M378.588 560.146L341.856 596.879H330.667L367.4 560.146H378.588Z" fill="#A39D99"/>
<path d="M404.066 560.146L367.333 596.879H356.145L392.878 560.146H404.066Z" fill="#A39D99"/>
<path d="M421.32 563.921V568.37L392.81 596.88H381.621L418.287 560.214C420.039 560.551 421.32 562.101 421.32 563.921Z" fill="#A39D99"/>
<path d="M421.32 582.725V593.105C421.32 593.374 421.32 593.644 421.253 593.914L418.355 596.812C418.086 596.879 417.816 596.879 417.546 596.879H407.167L421.32 582.725Z" fill="#A39D99"/>
<path opacity="0.1" d="M746.745 606.854C751.927 606.854 756.128 605.953 756.128 604.841C756.128 603.729 751.927 602.828 746.745 602.828C741.563 602.828 737.362 603.729 737.362 604.841C737.362 605.953 741.563 606.854 746.745 606.854Z" fill="black"/>
<path d="M634.042 498.609C642.627 502.514 651.852 505.932 658.919 507.411C663.205 508.3 666.705 508.5 668.814 507.628C680.414 502.57 682.272 496.168 686.352 482.938L677.376 477.795C672.725 480.442 669.692 489.582 666.67 497.222L659.848 496.322L636.254 493.281L634.042 498.609Z" fill="#E5AC9C"/>
<path d="M634.064 498.616C632.631 499.519 631.658 497.014 630.072 495.09C628.407 494.615 626.745 493.307 625.102 494.097C623.985 492.933 625.627 491.926 627.776 491.457L632.095 491.219C633.877 491.642 635.349 492.269 636.259 493.265L634.064 498.616Z" fill="#EDB6A4"/>
<path d="M658.434 508.172C662.72 509.061 667.462 509.16 669.444 508.029C680.16 501.914 683.212 496.766 687.292 483.536L677.375 477.795C672.724 480.442 669.519 488.66 666.498 496.3L660.113 495.904C659.48 497.715 657.189 504.131 658.434 508.172Z" fill="#A39D99"/>
<path d="M659.211 495.299C657.535 499.836 657.166 503.741 657.265 508.312C658.183 509.061 659.423 509.438 660.97 509.463C661.847 504.405 662.433 500.012 662.391 495.769C661.799 495.028 660.362 495.159 659.211 495.299Z" fill="#749F55"/>
<path d="M633.616 503.662V597.424C633.616 600.822 631.37 603.717 628.734 603.717C626 603.717 623.852 600.823 623.852 597.424V503.662H633.616Z" fill="#312924"/>
<path d="M634.812 528.445H622.592C619.015 528.445 616.116 525.546 616.116 521.969V495.225C616.116 491.649 619.015 488.749 622.592 488.749H634.812C638.388 488.749 641.288 491.648 641.288 495.225V521.969C641.288 525.546 638.388 528.445 634.812 528.445Z" fill="#312924"/>
<path d="M633.616 504.792C633.616 502.096 631.43 499.91 628.734 499.91C627.828 499.91 627.027 500.224 626.299 500.654L626.27 500.583L620.32 503.355L623.276 512.634L629.908 509.531L629.873 509.445C632.002 508.919 633.616 507.084 633.616 504.792Z" fill="#9EBC88"/>
<path d="M622.441 512.633C625.137 512.633 627.323 510.447 627.323 507.751C627.323 505.055 625.137 502.869 622.441 502.869C619.745 502.869 617.559 505.055 617.559 507.751C617.559 510.447 619.745 512.633 622.441 512.633Z" fill="#DAD8D6"/>
<path d="M739.975 585.228L744.47 586.898C745.517 586.215 746.375 586.5 747.233 586.789L750.14 588.878L739.776 601.766L737.148 600.264L739.003 593.138L736.36 591.189L739.975 585.228Z" fill="#EDB6A4"/>
<path d="M746.93 586.173C748.412 586.262 749.502 587.163 750.964 588.774L739.029 604.276C737.119 606.545 735.349 606.166 736.086 603.617L738.704 593.22C739.711 593.297 740.742 593.058 741.844 591.854C742.989 590.664 743.934 589.403 744.62 588.047C744.015 587.589 743.48 587.098 743.959 586.124L746.93 586.173Z" fill="#312924"/>
<path d="M722.799 520.107L707.334 515.39C702.557 525.076 699.399 545.313 703.48 556.985C709.41 568.115 713.94 577.056 735.34 592.852L741.446 584.406L719.542 556.401C722.379 542.395 725.305 529.919 722.799 520.107Z" fill="#312924"/>
<path opacity="0.1" d="M703.466 556.99C707.066 563.708 710.162 569.64 716.77 576.799C714.904 572.156 711.7 568.047 710.112 563.258C709.216 560.489 708.856 557.579 708.538 554.702C708.336 552.77 708.134 550.838 708.451 548.916C708.988 545.194 711.711 541.534 711.685 537.735C711.658 534.231 706.791 533.687 704.199 534.524C703.453 534.764 702.725 535.149 702.079 535.598C701.217 543.274 701.455 551.183 703.466 556.99Z" fill="black"/>
<path d="M699.579 597.897L701.975 602.051C703.216 602.193 703.696 602.96 704.172 603.73L705.077 607.193L688.873 610.502L687.808 607.669L693.784 603.366L692.993 600.179L699.579 597.897Z" fill="#EDB6A4"/>
<path d="M704.33 603.062C705.414 604.076 705.678 605.466 705.776 607.638L686.695 611.957C683.776 612.485 682.656 611.064 684.85 609.571L693.5 603.237C694.226 603.939 695.172 604.413 696.79 604.189C698.43 604.003 699.964 603.636 701.357 603.029C701.184 602.29 701.085 601.571 702.075 601.127L704.33 603.062Z" fill="#312924"/>
<path d="M715.952 519.748L697.326 511.415C690.709 520.425 685.88 540.225 682.345 548.921C678.756 558.459 684.748 574.991 691.145 600.809L701.236 598.203L697.57 558.539C705.976 544.862 716.312 532.467 715.952 519.748Z" fill="#312924"/>
<path d="M676.973 502.006C681.91 508.999 690.519 515.775 692.806 521.01C693.191 521.167 693.559 521.286 693.983 521.427C703.227 524.245 719.618 520.26 721.523 516.634C722.834 514.14 700.519 479.458 687.38 474.629C680.639 472.674 671.149 479.746 672.377 487.617C673.633 493.649 674.48 498.451 676.973 502.006Z" fill="#A39D99"/>
<path d="M680.518 475.542C678.697 474.277 677.284 472.788 676.505 470.951L670.287 474.462L673.074 482.293C676.177 480.438 678.747 478.244 680.518 475.542Z" fill="#D8A598"/>
<path opacity="0.1" d="M671.792 478.457C672.186 478.222 672.658 477.91 673.13 477.598C673.996 477.051 674.861 476.504 675.883 476.429C676.826 476.275 677.688 476.671 678.631 476.831C678.867 476.91 679.101 476.99 679.337 476.912C679.888 476.521 680.204 476.051 680.519 475.581C678.718 474.24 677.309 472.821 676.53 470.933L670.314 474.446L671.792 478.457Z" fill="black"/>
<path d="M678.513 472.523C674.567 476.138 670.793 478.748 667.524 478.403C664.221 472.277 662.887 466.123 665.526 459.912L679.011 459.987L678.513 472.523Z" fill="#EDB6A4"/>
<path opacity="0.1" d="M664.233 468.866C664.768 469.013 665.392 469.092 665.791 469.063C666.434 468.986 666.989 468.977 667.564 468.812C669.289 468.318 671.014 467.823 672.67 467.241C673.265 466.92 674.015 466.62 674.474 466.123C675.528 465.306 676.104 463.874 676.018 462.676C675.941 462.033 675.844 461.546 675.592 461.039C675.339 460.532 674.911 460.161 674.395 459.859L667.839 459.743C667.752 459.811 667.752 459.811 667.596 459.791C666.757 460.16 665.987 460.617 665.062 461.054C664.171 463.713 663.924 466.294 664.233 468.866Z" fill="black"/>
<path d="M663.03 467.047C665.356 467.755 667.615 466.798 669.863 465.116C670.306 466.794 670.487 468.369 670.027 469.277C670.383 469.736 670.442 469.812 671.121 469.898C671.556 468.642 671.88 467.165 672.712 467.132C673.947 467.461 674.422 468.072 674.692 469.21C674.958 470.658 673.72 472.537 672.571 474.531C674.65 475.001 676.106 475.219 677.275 474.436C679.203 473.921 681.018 472.39 682.197 469.883C683.338 467.406 680.573 465.383 681.412 463.384C682.128 461.543 680.043 455.259 677.728 456.381C675.604 457.354 675.197 457.303 672.614 455.079C670.002 452.817 667.815 454.103 667.314 456.697C666.844 459.328 666.049 458.15 663.527 457.9C660.976 457.612 659.093 462.109 661.228 462.413C661.489 464.723 661.562 466.102 663.03 467.047Z" fill="#312924"/>
<path d="M630.089 507.147C638.926 510.443 648.367 513.209 655.52 514.191C659.858 514.779 663.363 514.734 665.406 513.717C676.625 507.862 678.031 501.346 681.178 487.862L671.865 483.358C667.41 486.324 665.023 495.653 662.542 503.485L655.673 503.063L631.924 501.677L630.089 507.147Z" fill="#EDB6A4"/>
<path d="M630.112 507.151C628.745 508.152 627.6 505.72 625.883 503.912C624.188 503.554 622.44 502.366 620.856 503.268C619.66 502.185 621.229 501.066 623.339 500.448L627.631 499.91C629.438 500.208 630.95 500.73 631.927 501.66L630.112 507.151Z" fill="#EDB6A4"/>
<path d="M655.09 514.984C659.428 515.572 664.165 515.34 666.063 514.073C676.326 507.225 679.011 501.877 682.158 488.393L671.865 483.358C667.41 486.324 664.787 494.745 662.306 502.578L655.908 502.628C655.403 504.479 653.566 511.039 655.09 514.984Z" fill="#A39D99"/>
<path d="M654.966 502.087C653.61 506.73 653.516 510.652 653.933 515.204C654.901 515.887 656.165 516.177 657.709 516.094C658.231 510.987 658.508 506.564 658.171 502.334C657.529 501.636 656.104 501.868 654.966 502.087Z" fill="#749F55"/>
<path d="M673.631 482.063C671.775 480.824 667.826 487.361 672.271 486.31C676.645 485.445 681.977 490.003 676.972 502.006C676.789 503.888 687.791 521.926 689.862 526.955C691.933 531.984 723.212 524.421 723.943 518.841C724.572 514.038 699.739 470.345 681.194 474.726C679.761 475.316 680.636 475.754 681.284 476.11C680.57 477.698 676.444 481.842 673.631 482.063Z" fill="#749F55"/>
<path d="M688.346 478.178L682.677 484.088L686.057 486.94L690.7 480.493L688.346 478.178Z" fill="#DAD8D6"/>
<path d="M663.317 465.411C670.486 464.791 678.819 463.668 681.555 461.099C684.305 458.556 677.287 448.05 667.711 452.086C662.713 454.22 660.478 457.885 660.177 460.829C653.392 463.33 658.915 465.949 663.317 465.411Z" fill="#749F55"/>
<path opacity="0.1" d="M442.471 622.048C447.548 622.048 451.664 620.891 451.664 619.463C451.664 618.035 447.548 616.878 442.471 616.878C437.394 616.878 433.278 618.035 433.278 619.463C433.278 620.891 437.394 622.048 442.471 622.048Z" fill="black"/>
<path d="M528.626 457.188C528.349 466.892 527.331 476.966 525.498 484.168C524.379 488.532 522.979 491.858 521.218 493.412C511.29 501.844 504.532 500.663 490.454 498.444L489.764 487.819C494.317 484.719 504.138 486.053 512.569 486.72L514.826 480.006L522.698 456.82L528.626 457.188Z" fill="#EDB6A4"/>
<path d="M528.622 457.212C530.106 456.296 531.354 455.3 531.903 454.069C532.218 452.314 531.915 451.006 531.371 448.5C530.801 446.94 526.485 446.047 525.778 448.104L524.207 451.705L522.657 449.852L521.715 450.787L522.682 456.817L528.622 457.212Z" fill="#EDB6A4"/>
<path d="M526.421 484.066C525.302 488.43 523.247 492.858 521.304 494.178C510.799 501.314 504.66 501.805 490.582 499.586L489.765 487.82C494.318 484.72 503.365 485.478 511.795 486.145L514.32 480.063C516.282 480.297 523.249 481.085 526.421 484.066Z" fill="#A39D99"/>
<path d="M514.17 478.955C519.123 479.46 522.899 480.888 527.08 483.048C527.357 484.235 527.144 485.553 526.466 486.994C521.393 485.515 517.068 484.067 513.165 482.107C512.747 481.224 513.52 479.955 514.17 478.955Z" fill="#749F55"/>
<path d="M482.051 418.948L520.942 392.758L523.973 396.381L504.012 416.963L559.593 483.396C560.799 484.837 560.608 486.983 559.166 488.189C557.725 489.395 555.579 489.204 554.373 487.763L499.248 421.875L491.329 430.04C488.882 432.563 484.434 431.928 481.705 428.665C478.976 425.401 479.136 420.911 482.051 418.948Z" fill="#312924"/>
<path d="M447.018 598.819L442.616 601.051C441.466 600.475 440.621 600.866 439.778 601.262L437.049 603.737L449.151 615.708L451.664 613.866L448.935 606.795L451.41 604.493L447.018 598.819Z" fill="#EDB6A4"/>
<path d="M440.016 600.596C438.511 600.859 437.501 601.909 436.194 603.726L450.208 618.187C452.426 620.285 454.192 619.69 453.141 617.169L449.251 606.842C448.23 607.039 447.148 606.914 445.88 605.811C444.571 604.728 443.456 603.548 442.596 602.241C443.161 601.702 443.651 601.137 443.048 600.198L440.016 600.596Z" fill="#312924"/>
<path d="M456.987 530.218L472.252 523.59C478.267 532.938 483.857 553.265 481.046 565.678C476.28 577.752 472.69 587.424 452.649 606.074L445.419 598.149L464.552 566.954C460.016 552.962 455.568 540.545 456.987 530.218Z" fill="#312924"/>
<path opacity="0.1" d="M481.061 565.682C478.164 572.973 475.689 579.4 469.767 587.492C471.134 582.526 473.93 577.95 474.996 572.868C475.589 569.931 475.617 566.914 475.608 563.934C475.589 561.935 475.57 559.935 475.022 558.006C474.039 554.263 470.827 550.838 470.411 546.949C470.03 543.362 474.944 542.239 477.692 542.792C478.483 542.95 479.272 543.26 479.985 543.644C481.761 551.393 482.439 559.509 481.061 565.682Z" fill="black"/>
<path d="M489.808 607.061L487.843 611.589C486.59 611.879 486.189 612.719 485.792 613.563L485.271 617.21L502.228 618.704L502.987 615.682L496.374 611.979L496.811 608.627L489.808 607.061Z" fill="#EDB6A4"/>
<path d="M485.551 612.898C484.56 614.061 484.453 615.513 484.606 617.747L504.624 619.938C507.67 620.138 508.65 618.553 506.233 617.283L496.648 611.814C495.987 612.617 495.075 613.212 493.395 613.171C491.696 613.173 490.085 612.975 488.589 612.518C488.68 611.742 488.697 610.995 487.633 610.657L485.551 612.898Z" fill="#312924"/>
<path d="M463.947 529.052L482.023 518.357C489.841 526.799 497.089 546.484 501.718 554.965C506.501 564.301 502.302 581.906 498.772 609.054L488.148 607.566L487.27 566.576C477.079 553.571 465.062 542.102 463.947 529.052Z" fill="#312924"/>
<path d="M506.639 511.492C501.516 518.66 492.614 525.583 490.229 530.958C489.832 531.118 489.452 531.238 489.015 531.381C479.484 534.226 464.41 530.499 462.471 526.755C461.137 524.18 482.538 488.144 496.09 483.253C503.04 481.281 512.765 488.616 511.455 496.711C510.126 502.911 509.226 507.848 506.639 511.492Z" fill="#A39D99"/>
<path d="M503.147 484.232C505.029 482.941 506.492 481.417 507.305 479.53L513.684 483.181L510.769 491.224C507.587 489.297 504.954 487.024 503.147 484.232Z" fill="#D8A598"/>
<path opacity="0.1" d="M512.112 487.285C511.708 487.041 511.224 486.717 510.74 486.393C509.852 485.825 508.964 485.257 507.914 485.173C506.944 485.009 506.054 485.411 505.083 485.57C504.84 485.65 504.598 485.731 504.356 485.649C503.791 485.244 503.469 484.758 503.147 484.272C505.009 482.902 506.467 481.451 507.281 479.512L513.658 483.165L512.112 487.285Z" fill="black"/>
<path d="M505.23 481.137C509.27 484.882 513.139 487.59 516.506 487.255C519.942 480.97 521.352 474.643 518.673 468.235L504.793 468.232L505.23 481.137Z" fill="#EDB6A4"/>
<path opacity="0.1" d="M519.949 477.458C519.397 477.606 518.755 477.684 518.344 477.651C517.683 477.568 517.111 477.556 516.52 477.382C514.748 476.863 512.975 476.344 511.274 475.735C510.663 475.401 509.893 475.087 509.424 474.574C508.344 473.727 507.759 472.25 507.855 471.017C507.938 470.356 508.041 469.855 508.303 469.335C508.566 468.814 509.009 468.435 509.542 468.127L516.291 468.047C516.38 468.117 516.38 468.117 516.541 468.098C517.402 468.483 518.192 468.958 519.142 469.413C520.043 472.154 520.282 474.812 519.949 477.458Z" fill="black"/>
<path d="M521.198 475.592C518.8 476.306 516.48 475.309 514.176 473.564C513.71 475.288 513.515 476.908 513.982 477.845C513.613 478.315 513.552 478.393 512.852 478.478C512.412 477.183 512.087 475.661 511.231 475.622C509.958 475.953 509.466 476.58 509.181 477.749C508.899 479.238 510.162 481.179 511.332 483.238C509.189 483.709 507.689 483.925 506.491 483.112C504.51 482.57 502.651 480.984 501.452 478.396C500.292 475.839 503.15 473.774 502.298 471.712C501.573 469.812 503.756 463.358 506.132 464.526C508.312 465.541 508.732 465.49 511.403 463.217C514.105 460.904 516.349 462.242 516.848 464.914C517.317 467.625 518.142 466.417 520.738 466.175C523.365 465.894 525.277 470.533 523.077 470.834C522.798 473.21 522.715 474.629 521.198 475.592Z" fill="#312924"/>
<path d="M545.965 477.326C542.254 486.297 537.718 495.35 533.444 501.429C530.846 505.11 528.355 507.72 526.156 508.546C513.878 512.895 507.982 509.387 495.615 502.305L498.75 492.13C504.108 490.852 512.812 495.593 520.454 499.215L524.952 493.743L540.558 474.874L545.965 477.326Z" fill="#EDB6A4"/>
<path d="M545.952 477.346C547.665 477.018 549.185 476.531 550.136 475.575C551.054 474.047 551.588 473.689 551.97 471.153C551.992 469.492 547.926 466.151 546.533 467.822L543.365 471.057L542.938 469.683L541.315 470.834L540.541 474.864L545.952 477.346Z" fill="#EDB6A4"/>
<path d="M534.343 501.66C531.745 505.341 528.249 508.748 525.963 509.29C513.607 512.222 507.694 510.497 495.327 503.415L498.749 492.128C504.107 490.85 512.293 494.778 519.934 498.399L524.457 493.613C526.207 494.531 532.438 497.746 534.343 501.66Z" fill="#A39D99"/>
<path d="M524.711 492.526C529.16 494.759 532.182 497.438 535.32 500.944C535.156 502.152 534.489 503.308 533.343 504.414C529.129 501.227 525.601 498.335 522.65 495.115C522.574 494.14 523.748 493.229 524.711 492.526Z" fill="#749F55"/>
<path d="M510.197 490.985C512.115 489.721 516.141 496.473 511.571 495.365C507.074 494.448 501.559 499.109 506.639 511.492C506.816 513.43 494.082 531.341 491.92 536.505C489.758 541.669 454.906 534.699 456.609 529.163C458.312 523.627 488.393 477.501 502.455 483.389C503.927 484.005 503.023 484.45 502.354 484.813C503.081 486.451 507.303 490.741 510.197 490.985Z" fill="#749F55"/>
<path d="M495.075 486.898L500.874 493.015L497.379 495.931L492.638 489.267L495.075 486.898Z" fill="#DAD8D6"/>
<path d="M520.912 473.907C513.536 473.226 504.966 472.021 502.166 469.36C499.351 466.726 506.637 455.954 516.469 460.166C521.601 462.392 523.879 466.178 524.171 469.209C531.14 471.824 525.44 474.487 520.912 473.907Z" fill="#749F55"/>
<path d="M528.141 445.455C526.791 445.245 527.836 448.547 529.287 449.62C530.738 450.693 532.362 451.291 532.03 449.732C531.698 448.172 530.311 445.793 528.141 445.455Z" fill="#EDB6A4"/>
<path d="M725.268 185.453C761.08 185.453 790.112 156.421 790.112 120.609C790.112 84.7967 761.08 55.765 725.268 55.765C689.456 55.765 660.424 84.7967 660.424 120.609C660.424 156.421 689.456 185.453 725.268 185.453Z" fill="#ACC599"/>
<path d="M846.496 173.744C846.496 190.081 833.249 203.328 816.942 203.328H735.461C722.067 203.328 711.205 192.466 711.205 179.072C711.205 165.678 722.067 154.816 735.461 154.816C737.492 154.816 739.464 155.052 741.348 155.552C744.586 136.153 761.453 121.376 781.765 121.376C797.867 121.376 811.82 130.678 818.502 144.189C834.074 145.014 846.496 157.937 846.496 173.744Z" fill="#DAD8D6"/>
<path d="M297.388 94.822C297.388 106.854 287.632 116.61 275.621 116.61H215.61C205.746 116.61 197.746 108.61 197.746 98.746C197.746 88.882 205.746 80.882 215.61 80.882C217.106 80.882 218.558 81.055 219.946 81.424C222.331 67.137 234.754 56.253 249.713 56.253C261.572 56.253 271.848 63.104 276.77 73.055C288.239 73.662 297.388 83.179 297.388 94.822Z" fill="#DAD8D6"/>
<path d="M507.194 24.46C513.948 24.46 519.424 18.9844 519.424 12.23C519.424 5.47556 513.948 0 507.194 0C500.44 0 494.964 5.47556 494.964 12.23C494.964 18.9844 500.44 24.46 507.194 24.46Z" fill="#DAD8D6"/>
</svg>
