<svg xmlns="http://www.w3.org/2000/svg" viewBox="0 0 100 100"><path fill="#fdfdfd" d="M62.905,97.5H37.1a3.854,3.854,0,0,1-3.854-3.853V71.323a16.759,16.759,0,0,1,33.518,0V93.647A3.854,3.854,0,0,1,62.905,97.5ZM40.948,89.793h18.1V71.323a9.052,9.052,0,0,0-18.1,0Z"/><path fill="#fdfdfd" d="M81.11,97.5H18.891a3.854,3.854,0,0,1-3.854-3.853V55.107h-7.2a3.853,3.853,0,0,1-2.81-6.488L47.188,3.666a3.967,3.967,0,0,1,5.619,0L94.973,48.619a3.852,3.852,0,0,1-2.81,6.488h-7.2v38.54A3.854,3.854,0,0,1,81.11,97.5ZM22.744,89.793H77.256V51.253A3.854,3.854,0,0,1,81.11,47.4h2.157L50,11.935,16.733,47.4h2.158a3.854,3.854,0,0,1,3.853,3.853Z"/></svg>