<svg width="30" height="30" viewBox="0 0 16 16" fill="none" xmlns="http://www.w3.org/2000/svg">
<path d="M12.2523 1.36328H3.66881C2.17783 1.36328 0.964844 2.57599 0.964844 4.06697V6.92305V12.6507C0.964844 14.1417 2.17783 15.3544 3.66881 15.3544H12.2526C13.7436 15.3544 14.9563 14.1417 14.9563 12.6507V6.92277V4.06668C14.956 2.57571 13.7433 1.36328 12.2523 1.36328ZM13.0278 2.97561L13.3372 2.97449V3.28239V5.346L10.9736 5.35362L10.9654 2.98239L13.0278 2.97561ZM5.96356 6.92277C6.41172 6.30273 7.13873 5.89605 7.96056 5.89605C8.78239 5.89605 9.50939 6.30273 9.95699 6.92277C10.2485 7.32747 10.4232 7.82249 10.4232 8.35871C10.4232 9.71648 9.31748 10.8211 7.96028 10.8211C6.60222 10.8211 5.49761 9.71648 5.49761 8.35871C5.49789 7.82249 5.67202 7.32747 5.96356 6.92277ZM13.5929 12.6505C13.5929 13.3902 12.9914 13.991 12.2523 13.991H3.66881C2.92939 13.991 2.32797 13.3902 2.32797 12.6505V6.92277H4.41642C4.23608 7.36642 4.13476 7.851 4.13476 8.35871C4.13476 10.4678 5.85067 12.1848 7.96056 12.1848C10.0702 12.1848 11.7861 10.4678 11.7861 8.35871C11.7861 7.851 11.6842 7.36642 11.5039 6.92277H13.5929V12.6505Z" fill="#749F55"/>
</svg>
