<svg width="30" height="30" viewBox="0 0 16 15" fill="none" xmlns="http://www.w3.org/2000/svg">
<path d="M15.899 2.5979C15.3149 2.86004 14.6863 3.03686 14.0267 3.11599C14.7001 2.70894 15.2165 2.06417 15.46 1.29501C14.8301 1.67243 14.1328 1.94629 13.39 2.09413C12.7955 1.45457 11.9482 1.05469 11.0106 1.05469C9.21052 1.05469 7.75103 2.52821 7.75103 4.34594C7.75103 4.60352 7.77973 4.85459 7.83553 5.09589C5.1262 4.95847 2.72393 3.64841 1.11608 1.65712C0.835466 2.14298 0.674841 2.70829 0.674841 3.31203C0.674841 4.45372 1.25025 5.46126 2.12498 6.05132C1.59085 6.03406 1.08801 5.88589 0.648393 5.63938C0.648071 5.65306 0.648071 5.66706 0.648071 5.68106C0.648071 7.2754 1.7718 8.60531 3.26322 8.90816C2.9897 8.98306 2.70168 9.02344 2.4043 9.02344C2.194 9.02344 1.98983 9.00292 1.79083 8.96417C2.20593 10.2716 3.40965 11.2235 4.83592 11.2498C3.72026 12.1327 2.31495 12.6589 0.787408 12.6589C0.524538 12.6589 0.264894 12.6433 0.00976562 12.6126C1.45281 13.5469 3.16613 14.0914 5.00686 14.0914C11.0032 14.0914 14.2818 9.07652 14.2818 4.72726C14.2818 4.58463 14.2789 4.44233 14.2728 4.301C14.9095 3.83794 15.4623 3.25797 15.899 2.5979Z" fill="#749F55"/>
</svg>
