<svg width="28" height="24" viewBox="0 0 28 24" fill="none" xmlns="http://www.w3.org/2000/svg">
<path fill-rule="evenodd" clip-rule="evenodd" d="M9 19.25C6.92893 19.25 5.25 17.5711 5.25 15.5C5.25 13.4289 6.92893 11.75 9 11.75C11.0711 11.75 12.75 13.4289 12.75 15.5C12.75 16.4946 12.3549 17.4484 11.6517 18.1517C10.9484 18.8549 9.99456 19.25 9 19.25Z" stroke="#111111" stroke-width="2" stroke-linecap="round" stroke-linejoin="round"/>
<path d="M0.750977 15.5H2.25098" stroke="#111111" stroke-width="2" stroke-linecap="round" stroke-linejoin="round"/>
<path d="M15.751 15.5H23.251" stroke="#111111" stroke-width="2" stroke-linecap="round" stroke-linejoin="round"/>
<path fill-rule="evenodd" clip-rule="evenodd" d="M15 8.25C17.0711 8.25 18.75 6.57107 18.75 4.5C18.75 2.42893 17.0711 0.75 15 0.75C12.9289 0.75 11.25 2.42893 11.25 4.5C11.25 5.49456 11.6451 6.44839 12.3483 7.15165C13.0516 7.85491 14.0054 8.25 15 8.25Z" stroke="#111111" stroke-width="2" stroke-linecap="round" stroke-linejoin="round"/>
<path d="M23.249 4.5H21.749" stroke="#111111" stroke-width="2" stroke-linecap="round" stroke-linejoin="round"/>
<path d="M8.24902 4.5H0.749023" stroke="#111111" stroke-width="2" stroke-linecap="round" stroke-linejoin="round"/>
</svg>
