<svg width="32" height="32" viewBox="0 0 32 32" fill="none" xmlns="http://www.w3.org/2000/svg">
<path d="M29.6 13.2L18.17 4.72C17.5431 4.25252 16.782 3.99998 16 3.99998C15.218 3.99998 14.4569 4.25252 13.83 4.72L2.4 13.2C2.18783 13.3591 2.04756 13.596 2.01005 13.8586C1.97255 14.1211 2.04087 14.3878 2.2 14.6C2.35913 14.8122 2.59603 14.9524 2.85858 14.99C3.12113 15.0275 3.38783 14.9591 3.6 14.8L5 13.8V26C5 26.7957 5.31607 27.5587 5.87868 28.1213C6.44129 28.6839 7.20435 29 8 29H13C13.2652 29 13.5196 28.8946 13.7071 28.7071C13.8946 28.5196 14 28.2652 14 28C14 27.7348 13.8946 27.4804 13.7071 27.2929C13.5196 27.1054 13.2652 27 13 27H8C7.73479 27 7.48043 26.8946 7.2929 26.7071C7.10536 26.5196 7 26.2652 7 26V12.28L15 6.33C15.2853 6.10617 15.6374 5.98452 16 5.98452C16.3626 5.98452 16.7147 6.10617 17 6.33L25 12.28V26C25 26.2652 24.8946 26.5196 24.7071 26.7071C24.5196 26.8946 24.2652 27 24 27H18.31C17.7206 26.6147 17.2251 26.1021 16.86 25.5C16.7007 25.2101 16.5701 24.9053 16.47 24.59C17.9767 24.007 19.206 22.8741 19.91 21.42C20.4363 20.2546 20.606 18.9596 20.3978 17.698C20.1896 16.4363 19.6128 15.2645 18.74 14.33C18.6465 14.2264 18.5324 14.1435 18.4049 14.0867C18.2775 14.0299 18.1395 14.0003 18 14C16.604 14.0018 15.25 14.4778 14.1599 15.3498C13.0698 16.2219 12.3082 17.4384 12 18.8C11.7947 19.9226 11.9089 21.0804 12.3297 22.1413C12.7505 23.2021 13.4609 24.1234 14.38 24.8H14.44C14.5821 25.3875 14.8113 25.9504 15.12 26.47C15.6918 27.4389 16.496 28.25 17.46 28.83H17.55H17.64C17.7474 28.9102 17.8698 28.968 18 29H24C24.7957 29 25.5587 28.6839 26.1213 28.1213C26.6839 27.5587 27 26.7957 27 26V13.76L28.4 14.76C28.5731 14.8898 28.7836 14.96 29 14.96C29.1552 14.96 29.3084 14.9239 29.4472 14.8544C29.5861 14.785 29.7069 14.6842 29.8 14.56C29.9468 14.3507 30.0079 14.0931 29.9707 13.8402C29.9335 13.5872 29.8009 13.3582 29.6 13.2ZM14 19.2C14.1876 18.363 14.6312 17.6051 15.2691 17.0316C15.9071 16.4582 16.7078 16.0976 17.56 16C18.0526 16.6391 18.3621 17.4001 18.4554 18.2016C18.5488 19.003 18.4225 19.8148 18.09 20.55C17.7081 21.3417 17.0896 21.9952 16.32 22.42C16.4109 21.7278 16.6065 21.0534 16.9 20.42C16.9578 20.3018 16.9917 20.1734 16.9999 20.0421C17.008 19.9108 16.9902 19.7792 16.9475 19.6547C16.9048 19.5303 16.838 19.4155 16.7509 19.3169C16.6638 19.2183 16.5582 19.1378 16.44 19.08C16.3218 19.0222 16.1934 18.9883 16.0621 18.9801C15.9308 18.972 15.7992 18.9898 15.6747 19.0325C15.5503 19.0752 15.4355 19.142 15.3369 19.2291C15.2383 19.3162 15.1578 19.4218 15.1 19.54C14.7667 20.2482 14.5313 20.9984 14.4 21.77C13.9734 20.9854 13.832 20.0771 14 19.2Z" fill="black"/>
</svg>
