<svg viewBox="0 0 32 32" fill="none" xmlns="http://www.w3.org/2000/svg">
<path d="M17.76 2.64999C17.2703 2.22901 16.6458 1.99753 16 1.99753C15.3542 1.99753 14.7298 2.22901 14.24 2.64999C7.84001 7.99999 5.21001 16.42 8.11001 22.13C9.60624 24.8089 12.0718 26.8129 15 27.73V29C15 29.2652 15.1054 29.5196 15.2929 29.7071C15.4804 29.8946 15.7348 30 16 30C16.2652 30 16.5196 29.8946 16.7071 29.7071C16.8947 29.5196 17 29.2652 17 29V23.41L20.71 19.71C20.8983 19.5217 21.0041 19.2663 21.0041 19C21.0041 18.7337 20.8983 18.4783 20.71 18.29C20.5217 18.1017 20.2663 17.9959 20 17.9959C19.7337 17.9959 19.4783 18.1017 19.29 18.29L17 20.59V15.41L19.71 12.71C19.8032 12.6168 19.8772 12.5061 19.9277 12.3842C19.9781 12.2624 20.0041 12.1319 20.0041 12C20.0041 11.8681 19.9781 11.7376 19.9277 11.6157C19.8772 11.4939 19.8032 11.3832 19.71 11.29C19.6168 11.1968 19.5061 11.1228 19.3843 11.0723C19.2624 11.0219 19.1319 10.9959 19 10.9959C18.8682 10.9959 18.7376 11.0219 18.6158 11.0723C18.4939 11.1228 18.3833 11.1968 18.29 11.29L17 12.59V7.99999C17 7.73478 16.8947 7.48042 16.7071 7.29289C16.5196 7.10535 16.2652 6.99999 16 6.99999C15.7348 6.99999 15.4804 7.10535 15.2929 7.29289C15.1054 7.48042 15 7.73478 15 7.99999V12.59L13.71 11.29C13.5217 11.1017 13.2663 10.9959 13 10.9959C12.7337 10.9959 12.4783 11.1017 12.29 11.29C12.1017 11.4783 11.9959 11.7337 11.9959 12C11.9959 12.2663 12.1017 12.5217 12.29 12.71L15 15.41V20.59L12.71 18.29C12.6168 18.1968 12.5061 18.1228 12.3843 18.0723C12.2624 18.0219 12.1319 17.9959 12 17.9959C11.8682 17.9959 11.7376 18.0219 11.6158 18.0723C11.4939 18.1228 11.3832 18.1968 11.29 18.29C11.1968 18.3832 11.1228 18.4939 11.0724 18.6157C11.0219 18.7376 10.9959 18.8681 10.9959 19C10.9959 19.1319 11.0219 19.2624 11.0724 19.3842C11.1228 19.5061 11.1968 19.6168 11.29 19.71L15 23.41V25.59C12.8318 24.7916 11.0197 23.2455 9.89001 21.23C7.40001 16.32 9.82001 8.99999 15.53 4.16999C15.6598 4.0554 15.8269 3.99216 16 3.99216C16.1731 3.99216 16.3403 4.0554 16.47 4.16999C22.18 8.99999 24.6 16.32 22.11 21.23C21.5037 22.4199 20.6227 23.4482 19.54 24.23C19.4342 24.308 19.3448 24.4062 19.277 24.5188C19.2091 24.6315 19.1641 24.7564 19.1446 24.8864C19.1251 25.0165 19.1315 25.1491 19.1633 25.2767C19.1951 25.4043 19.2517 25.5243 19.33 25.63C19.486 25.8424 19.7195 25.9847 19.9798 26.0259C20.24 26.0671 20.5061 26.0039 20.72 25.85C22.0528 24.8913 23.1392 23.6301 23.89 22.17C26.79 16.42 24.16 7.99999 17.76 2.64999Z" fill="#749F55"/>
</svg>
