<svg width="32" height="32" viewBox="0 0 32 32" fill="none" xmlns="http://www.w3.org/2000/svg">
<path d="M29.51 22.46C29.1764 21.9976 28.7139 21.6437 28.1803 21.4428C27.6468 21.2418 27.0658 21.2025 26.51 21.33L20.17 22.84C19.7908 22.9198 19.3992 22.9198 19.02 22.84L15.96 22.25C15.805 22.2292 15.6621 22.1548 15.5562 22.0397C15.4503 21.9247 15.3879 21.7762 15.38 21.62C15.3851 21.5293 15.4081 21.4405 15.4475 21.3588C15.487 21.277 15.5422 21.2038 15.6101 21.1434C15.6779 21.083 15.757 21.0366 15.8427 21.0069C15.9285 20.9771 16.0194 20.9646 16.11 20.97H17C17.663 20.97 18.2989 20.7066 18.7678 20.2377C19.2366 19.7689 19.5 19.133 19.5 18.47C19.5 17.8069 19.2366 17.171 18.7678 16.7022C18.2989 16.2334 17.663 15.97 17 15.97H14.11C13.4657 15.9703 12.8251 16.0681 12.21 16.26L7.93 17.65C7.85909 17.4602 7.73219 17.2964 7.56611 17.1803C7.40004 17.0642 7.20262 17.0013 7 17H3C2.73478 17 2.48043 17.1053 2.29289 17.2929C2.10536 17.4804 2 17.7348 2 18V21C2 21.2652 2.10536 21.5195 2.29289 21.7071C2.48043 21.8946 2.73478 22 3 22C3.26522 22 3.51957 21.8946 3.70711 21.7071C3.89464 21.5195 4 21.2652 4 21V19H6V28H4V25C4 24.7348 3.89464 24.4804 3.70711 24.2929C3.51957 24.1053 3.26522 24 3 24C2.73478 24 2.48043 24.1053 2.29289 24.2929C2.10536 24.4804 2 24.7348 2 25V29C2 29.2652 2.10536 29.5195 2.29289 29.7071C2.48043 29.8946 2.73478 30 3 30H7C7.24721 30.0015 7.48622 29.9113 7.67089 29.747C7.85557 29.5826 7.97281 29.3557 8 29.11L13.7 29.71C14.2114 29.7663 14.7256 29.793 15.24 29.79C16.5941 29.7877 17.941 29.5924 19.24 29.21C19.4916 29.1397 19.7057 28.9737 19.8365 28.7476C19.9674 28.5215 20.0045 28.2531 19.94 28C19.8657 27.7454 19.6934 27.5307 19.4608 27.4032C19.2283 27.2756 18.9546 27.2457 18.7 27.32C17.1413 27.7824 15.506 27.9286 13.89 27.75L8 27.1V19.73L12.82 18.2C13.2373 18.0679 13.6723 18.0004 14.11 18H17C17.1326 18 17.2598 18.0526 17.3536 18.1464C17.4473 18.2402 17.5 18.3674 17.5 18.5C17.5 18.6326 17.4473 18.7598 17.3536 18.8535C17.2598 18.9473 17.1326 19 17 19H16.11C15.4275 18.9554 14.7543 19.1775 14.2323 19.6195C13.7103 20.0614 13.3801 20.6887 13.3114 21.3692C13.2427 22.0497 13.4408 22.7303 13.864 23.2677C14.2871 23.805 14.9023 24.1572 15.58 24.25L18.64 24.83C19.2993 24.9701 19.9807 24.9701 20.64 24.83L26.98 23.31C27.1513 23.2682 27.3311 23.2782 27.4966 23.3387C27.6622 23.3992 27.8061 23.5076 27.91 23.65C27.9745 23.74 28.0163 23.8443 28.032 23.954C28.0476 24.0636 28.0367 24.1754 28 24.28C27.9564 24.402 27.8834 24.5115 27.7875 24.5987C27.6916 24.6859 27.5757 24.7481 27.45 24.78L23 26C22.8687 26.0184 22.7423 26.0624 22.628 26.1297C22.5137 26.1969 22.4138 26.286 22.3339 26.3919C22.254 26.4977 22.1958 26.6183 22.1625 26.7466C22.1293 26.875 22.1216 27.0086 22.14 27.14C22.1584 27.2713 22.2025 27.3977 22.2697 27.512C22.3369 27.6263 22.426 27.7262 22.5319 27.8061C22.6377 27.8859 22.7583 27.9442 22.8867 27.9774C23.015 28.0107 23.1487 28.0184 23.28 28C23.3728 28.0146 23.4672 28.0146 23.56 28L28 26.65C28.4277 26.5266 28.8201 26.3037 29.1451 25.9995C29.4701 25.6953 29.7185 25.3186 29.87 24.9C30.0089 24.494 30.0487 24.0607 29.9861 23.6363C29.9235 23.2118 29.7602 22.8085 29.51 22.46Z" fill="black"/>
<path d="M16.26 13.67C16.3538 13.7731 16.468 13.8555 16.5954 13.9119C16.7229 13.9682 16.8607 13.9974 17 13.9974C17.1394 13.9974 17.2772 13.9682 17.4046 13.9119C17.5321 13.8555 17.6463 13.7731 17.74 13.67L22.79 8.05998C23.2601 7.53835 23.5688 6.89158 23.6786 6.19806C23.7885 5.50454 23.6949 4.79404 23.4092 4.15265C23.1234 3.51126 22.6577 2.96651 22.0686 2.58443C21.4795 2.20235 20.7922 1.99933 20.09 1.99998C19.1269 1.99937 18.2027 2.38054 17.52 3.05998L17 3.58998L16.48 3.05998C16.0626 2.64428 15.5505 2.3361 14.9878 2.16191C14.425 1.98772 13.8284 1.95272 13.2491 2.05992C12.6698 2.16712 12.1252 2.41331 11.6621 2.77736C11.1989 3.14141 10.831 3.61243 10.59 4.14998C10.3 4.79099 10.2041 5.50295 10.3143 6.19785C10.4245 6.89275 10.7359 7.54013 11.21 8.05998L16.26 13.67ZM12.42 4.99998C12.5258 4.75693 12.6896 4.54354 12.897 4.37854C13.1045 4.21354 13.3492 4.10196 13.6099 4.05358C13.8705 4.00521 14.139 4.02153 14.3918 4.1011C14.6446 4.18067 14.8741 4.32107 15.06 4.50998L16.29 5.73998C16.383 5.83371 16.4936 5.9081 16.6155 5.95887C16.7373 6.00964 16.868 6.03578 17 6.03578C17.132 6.03578 17.2628 6.00964 17.3846 5.95887C17.5065 5.9081 17.6171 5.83371 17.71 5.73998L18.94 4.50998C19.2456 4.25781 19.6326 4.12556 20.0286 4.13797C20.4246 4.15038 20.8025 4.30659 21.0917 4.5774C21.3809 4.8482 21.5615 5.21507 21.5999 5.6094C21.6382 6.00373 21.5316 6.39852 21.3 6.71998L17 11.5L12.7 6.71998C12.4887 6.49299 12.3493 6.2085 12.2995 5.90239C12.2497 5.59628 12.2916 5.28227 12.42 4.99998Z" fill="black"/>
</svg>
