<svg width="32" height="32" viewBox="0 0 32 32" fill="none" xmlns="http://www.w3.org/2000/svg">
<path d="M29.51 22.67C29.1085 22.099 28.5102 21.6966 27.83 21.54C27.32 20.07 25.31 15.24 20.32 13.54C19.5684 13.2848 18.79 13.117 18 13.04V8.43C18.166 7.61817 18.5058 6.85191 18.996 6.18387C19.4863 5.51583 20.1153 4.96185 20.84 4.56C22.0815 3.93756 23.5174 3.82627 24.84 4.25C24.4067 5.61838 23.4557 6.76319 22.19 7.44C21.7646 7.65556 21.3097 7.80719 20.84 7.89C20.7059 7.9092 20.5771 7.95544 20.4615 8.02591C20.3458 8.09639 20.2456 8.18962 20.1671 8.29997C20.0885 8.41031 20.0332 8.53547 20.0045 8.66783C19.9758 8.8002 19.9742 8.93702 20 9.07C20.0447 9.30112 20.1695 9.50906 20.3524 9.65723C20.5353 9.80539 20.7646 9.88428 21 9.88H21.19C21.8473 9.75802 22.4838 9.54249 23.08 9.24C24.0939 8.68814 24.9719 7.91703 25.6501 6.98286C26.3282 6.04869 26.7894 4.97499 27 3.84C27.0362 3.62989 27.0043 3.41372 26.9089 3.22303C26.8136 3.03234 26.6598 2.87711 26.47 2.78C25.455 2.27144 24.3353 2.00665 23.2 2.00665C22.0647 2.00665 20.945 2.27144 19.93 2.78C18.2206 3.68397 16.927 5.21403 16.32 7.05C15.7913 6.47137 15.1565 5.99952 14.45 5.66C13.5298 5.22891 12.5261 5.00545 11.51 5.00545C10.4939 5.00545 9.49016 5.22891 8.57 5.66C8.36903 5.75177 8.20411 5.9075 8.101 6.10289C7.99788 6.29827 7.96236 6.5223 8 6.74C8.20046 7.72583 8.62363 8.65279 9.23717 9.45005C9.85071 10.2473 10.6384 10.8938 11.54 11.34C12.4815 11.7715 13.5044 11.9965 14.54 12C15.031 11.9999 15.5206 11.9463 16 11.84V13.05C14.651 13.1497 13.3305 13.4883 12.1 14.05C11.8533 14.1693 11.6642 14.3818 11.5742 14.6406C11.4842 14.8994 11.5007 15.1833 11.62 15.43C11.7393 15.6767 11.9518 15.8658 12.2106 15.9558C12.4694 16.0458 12.7533 16.0293 13 15.91C15.0989 14.89 17.5119 14.725 19.73 15.45C23.43 16.7 25.18 20.11 25.81 21.7L20.18 23.05C19.8014 23.1348 19.4086 23.1348 19.03 23.05L15.97 22.47C15.8142 22.447 15.6711 22.3706 15.5653 22.2539C15.4596 22.1372 15.3976 21.9873 15.39 21.83C15.4028 21.6487 15.4867 21.4797 15.6234 21.3599C15.7601 21.2401 15.9385 21.179 16.12 21.19H17C17.663 21.19 18.2989 20.9266 18.7678 20.4578C19.2366 19.9889 19.5 19.353 19.5 18.69C19.5 18.027 19.2366 17.3911 18.7678 16.9222C18.2989 16.4534 17.663 16.19 17 16.19H14.1C13.4587 16.1869 12.8209 16.2847 12.21 16.48L6.76 18.24L3.33 19.09C2.95022 19.1875 2.61356 19.4083 2.37284 19.7178C2.13212 20.0273 2.00098 20.4079 2 20.8V27.44C1.99868 27.672 2.04323 27.9019 2.13109 28.1166C2.21895 28.3313 2.34838 28.5265 2.51194 28.691C2.6755 28.8555 2.86997 28.986 3.08416 29.0751C3.29834 29.1642 3.52803 29.21 3.76 29.21H7C7.26521 29.21 7.51957 29.1046 7.7071 28.9171C7.89464 28.7296 8 28.4752 8 28.21C8 27.9448 7.89464 27.6904 7.7071 27.5029C7.51957 27.3154 7.26521 27.21 7 27.21H4V21L7.3 20.17L12.82 18.41C13.2347 18.2828 13.6662 18.2187 14.1 18.22H17C17.1416 18.2117 17.2808 18.2596 17.3875 18.3531C17.4942 18.4467 17.5597 18.5785 17.57 18.72C17.5573 18.8606 17.491 18.9909 17.3849 19.0839C17.2788 19.177 17.141 19.2257 17 19.22H16.11C15.4425 19.2 14.7922 19.4338 14.2902 19.8741C13.7882 20.3145 13.4717 20.9287 13.4045 21.5932C13.3373 22.2576 13.5244 22.9228 13.928 23.4547C14.3317 23.9867 14.922 24.3459 15.58 24.46L18.6 25C19.2628 25.1234 19.9442 25.1064 20.6 24.95L26.93 23.44C27.1017 23.395 27.283 23.4023 27.4505 23.4612C27.618 23.52 27.7641 23.6275 27.87 23.77C27.9345 23.8601 27.9763 23.9643 27.992 24.074C28.0076 24.1837 27.9967 24.2955 27.96 24.4C27.9164 24.5221 27.8434 24.6315 27.7475 24.7187C27.6516 24.8059 27.5357 24.8682 27.41 24.9L18.71 27.46C17.1469 27.9172 15.5093 28.0633 13.89 27.89L11.11 27.6C10.8448 27.5708 10.5788 27.6482 10.3707 27.8151C10.1625 27.982 10.0292 28.2248 10 28.49C9.97082 28.7552 10.0482 29.0212 10.2151 29.2293C10.382 29.4375 10.6248 29.5708 10.89 29.6L13.68 29.9C14.19 29.9 14.68 29.98 15.21 29.98C16.5841 29.9815 17.9513 29.7862 19.27 29.4L28 26.86C28.427 26.7351 28.8187 26.5117 29.1435 26.2078C29.4683 25.9038 29.7171 25.5278 29.87 25.11C30.0089 24.7041 30.0487 24.2708 29.9861 23.8463C29.9235 23.4218 29.7602 23.0185 29.51 22.67ZM12.44 9.54C11.4351 9.04632 10.648 8.19871 10.23 7.16C11.3415 6.87491 12.5173 6.98084 13.56 7.46C14.5649 7.95368 15.352 8.80129 15.77 9.84C14.6585 10.1251 13.4827 10.0192 12.44 9.54Z" fill="black"/>
</svg>
