<svg width="32" height="32" viewBox="0 0 32 32" fill="none" xmlns="http://www.w3.org/2000/svg">
<path d="M26.09 4H11C10.7348 4 10.4804 4.10536 10.2929 4.29289C10.1054 4.48043 10 4.73478 10 5C10 5.26522 10.1054 5.51957 10.2929 5.70711C10.4804 5.89464 10.7348 6 11 6H26.09C26.5958 6.00263 27.08 6.2047 27.4377 6.56233C27.7953 6.91996 27.9974 7.40425 28 7.91V24.09C27.9974 24.5958 27.7953 25.08 27.4377 25.4377C27.08 25.7953 26.5958 25.9974 26.09 26H5.91C5.40425 25.9974 4.91996 25.7953 4.56233 25.4377C4.2047 25.08 4.00263 24.5958 4 24.09V7.91C4.00263 7.40425 4.2047 6.91996 4.56233 6.56233C4.91996 6.2047 5.40425 6.00263 5.91 6C6.17522 6 6.42957 5.89464 6.61711 5.70711C6.80464 5.51957 6.91 5.26522 6.91 5C6.91 4.73478 6.80464 4.48043 6.61711 4.29289C6.42957 4.10536 6.17522 4 5.91 4C4.873 4 3.87848 4.41195 3.14521 5.14521C2.41195 5.87848 2 6.873 2 7.91V24.09C2 25.127 2.41195 26.1215 3.14521 26.8548C3.87848 27.5881 4.873 28 5.91 28H26.09C27.127 28 28.1215 27.5881 28.8548 26.8548C29.5881 26.1215 30 25.127 30 24.09V7.91C30 6.873 29.5881 5.87848 28.8548 5.14521C28.1215 4.41195 27.127 4 26.09 4Z" fill="black"/>
<path d="M16 9H7C6.73478 9 6.48043 9.10536 6.29289 9.29289C6.10536 9.48043 6 9.73478 6 10C6 10.2652 6.10536 10.5196 6.29289 10.7071C6.48043 10.8946 6.73478 11 7 11H16C16.2652 11 16.5196 10.8946 16.7071 10.7071C16.8946 10.5196 17 10.2652 17 10C17 9.73478 16.8946 9.48043 16.7071 9.29289C16.5196 9.10536 16.2652 9 16 9Z" fill="black"/>
<path d="M25 11C25.2652 11 25.5196 10.8946 25.7071 10.7071C25.8946 10.5196 26 10.2652 26 10C26 9.73478 25.8946 9.48043 25.7071 9.29289C25.5196 9.10536 25.2652 9 25 9H21C20.7348 9 20.4804 9.10536 20.2929 9.29289C20.1054 9.48043 20 9.73478 20 10C20 10.2652 20.1054 10.5196 20.2929 10.7071C20.4804 10.8946 20.7348 11 21 11H25Z" fill="black"/>
<path d="M15 16C15 16.2652 15.1054 16.5196 15.2929 16.7071C15.4804 16.8946 15.7348 17 16 17H25C25.2652 17 25.5196 16.8946 25.7071 16.7071C25.8946 16.5196 26 16.2652 26 16C26 15.7348 25.8946 15.4804 25.7071 15.2929C25.5196 15.1054 25.2652 15 25 15H16C15.7348 15 15.4804 15.1054 15.2929 15.2929C15.1054 15.4804 15 15.7348 15 16Z" fill="black"/>
<path d="M7 17H11C11.2652 17 11.5196 16.8946 11.7071 16.7071C11.8946 16.5196 12 16.2652 12 16C12 15.7348 11.8946 15.4804 11.7071 15.2929C11.5196 15.1054 11.2652 15 11 15H7C6.73478 15 6.48043 15.1054 6.29289 15.2929C6.10536 15.4804 6 15.7348 6 16C6 16.2652 6.10536 16.5196 6.29289 16.7071C6.48043 16.8946 6.73478 17 7 17Z" fill="black"/>
<path d="M7 23H16C16.2652 23 16.5196 22.8946 16.7071 22.7071C16.8946 22.5196 17 22.2652 17 22C17 21.7348 16.8946 21.4804 16.7071 21.2929C16.5196 21.1054 16.2652 21 16 21H7C6.73478 21 6.48043 21.1054 6.29289 21.2929C6.10536 21.4804 6 21.7348 6 22C6 22.2652 6.10536 22.5196 6.29289 22.7071C6.48043 22.8946 6.73478 23 7 23Z" fill="black"/>
<path d="M25 21H21C20.7348 21 20.4804 21.1054 20.2929 21.2929C20.1054 21.4804 20 21.7348 20 22C20 22.2652 20.1054 22.5196 20.2929 22.7071C20.4804 22.8946 20.7348 23 21 23H25C25.2652 23 25.5196 22.8946 25.7071 22.7071C25.8946 22.5196 26 22.2652 26 22C26 21.7348 25.8946 21.4804 25.7071 21.2929C25.5196 21.1054 25.2652 21 25 21Z" fill="black"/>
</svg>
